<svg xmlns="http://www.w3.org/2000/svg" width="44" height="45" viewBox="0 0 44 45"><defs><clipPath id="2jsfa"><path fill="#fff" d="M22 .726c4.435 0 8.563 1.312 12.234 3.713C40.028 8.223 44 15.01 44 22.726c0 12.15-9.85 22-22 22s-22-9.85-22-22 9.85-22 22-22z"/></clipPath></defs><g><g><g><g><path fill="#333" d="M13.192 30.467h4.203V17.82h-4.203zm2.13-18.741c-1.44 0-2.38.943-2.38 2.184 0 1.214.914 2.186 2.324 2.186h.028c1.466 0 2.378-.972 2.378-2.186-.028-1.24-.912-2.184-2.35-2.184zm17.233 11.49c0-3.884-2.074-5.692-4.841-5.692-2.233 0-3.23 1.23-3.79 2.09v.04h-.027l.028-.04V17.82H19.72c.057 1.188 0 12.646 0 12.646h4.205v-7.062c0-.378.029-.755.14-1.025.304-.756.995-1.538 2.156-1.538 1.522 0 2.13 1.16 2.13 2.86v6.765h4.204v-7.251z"/></g></g><g><path fill="none" stroke="#333" stroke-miterlimit="20" stroke-width="3" d="M22 .726c4.435 0 8.563 1.312 12.234 3.713C40.028 8.223 44 15.01 44 22.726c0 12.15-9.85 22-22 22s-22-9.85-22-22 9.85-22 22-22z" clip-path="url(&quot;#2jsfa&quot;)"/></g></g></g></svg>