<svg xmlns="http://www.w3.org/2000/svg" width="99" height="83" viewBox="0 0 99 83"><defs><clipPath id="29gza"><path fill="#fff" d="M0 83V0h99v83z"/></clipPath><clipPath id="29gzb"><path fill="#fff" d="M10 72V51h28v21z"/></clipPath><clipPath id="29gzc"><path fill="#fff" d="M10 45V24h28v21z"/></clipPath></defs><g><g><g><g><path fill="none" stroke="#a1b3c1" stroke-miterlimit="20" stroke-width="3" d="M6.373 8.215h3.083"/></g><g><path fill="none" stroke="#a1b3c1" stroke-miterlimit="20" stroke-width="3" d="M11.709 8.215h3.082"/></g><g><path fill="none" stroke="#a1b3c1" stroke-miterlimit="20" stroke-width="3" d="M17.046 8.215h3.083"/></g><g><path fill="none" stroke="#a1b3c1" stroke-miterlimit="20" stroke-width="6" d="M0 83v0V0v0h99v83z" clip-path="url(&quot;#29gza&quot;)"/></g><g><path fill="none" stroke="#a1b3c1" stroke-miterlimit="20" stroke-width="3" d="M.797 15.136h97.186"/></g></g><g><path fill="none" stroke="#ff6f00" stroke-miterlimit="20" stroke-width="6" d="M10 72v0-21 0h28v21z" clip-path="url(&quot;#29gzb&quot;)"/></g><g><path fill="none" stroke="#ff6f00" stroke-miterlimit="20" stroke-width="6" d="M10 45v0-21 0h28v21z" clip-path="url(&quot;#29gzc&quot;)"/></g></g><g><path fill="none" stroke="#a1b3c1" stroke-linecap="round" stroke-miterlimit="20" stroke-width="3" d="M46.734 26.5H86.83"/></g><g><path fill="none" stroke="#a1b3c1" stroke-linecap="round" stroke-miterlimit="20" stroke-width="3" d="M46.734 52.5H86.83"/></g><g><path fill="none" stroke="#a1b3c1" stroke-linecap="round" stroke-miterlimit="20" stroke-width="3" d="M46.734 35.5H86.83"/></g><g><path fill="none" stroke="#a1b3c1" stroke-linecap="round" stroke-miterlimit="20" stroke-width="3" d="M46.734 61.5H86.83"/></g><g><path fill="none" stroke="#a1b3c1" stroke-linecap="round" stroke-miterlimit="20" stroke-width="3" d="M46.734 43.5H86.83"/></g><g><path fill="none" stroke="#a1b3c1" stroke-linecap="round" stroke-miterlimit="20" stroke-width="3" d="M46.734 70.5H86.83"/></g></g></svg>