<svg xmlns="http://www.w3.org/2000/svg" xmlns:xlink="http://www.w3.org/1999/xlink" zoomAndPan="magnify" viewBox="0 0 375 374.999991" preserveAspectRatio="xMidYMid meet" version="1.0"><defs><clipPath id="b2a58bd55e"><path d="M 98 83.824219 L 330.753906 83.824219 L 330.753906 290.824219 L 98 290.824219 Z M 98 83.824219 " clip-rule="nonzero"/></clipPath><clipPath id="bd6b4c8540"><path d="M 44.253906 83.824219 L 316 83.824219 L 316 290.824219 L 44.253906 290.824219 Z M 44.253906 83.824219 " clip-rule="nonzero"/></clipPath></defs><path fill="#ff6f00" d="M 197.96875 177.03125 C 192.1875 171.25 182.808594 171.25 177.027344 177.03125 C 171.246094 182.804688 171.246094 192.191406 177.027344 197.972656 C 182.808594 203.746094 192.1875 203.746094 197.96875 197.972656 C 203.75 192.191406 203.75 182.804688 197.96875 177.03125 Z M 190.988281 184.011719 C 192.914062 185.933594 192.914062 189.066406 190.988281 190.992188 C 189.0625 192.914062 185.933594 192.914062 184.007812 190.992188 C 182.082031 189.066406 182.082031 185.933594 184.007812 184.011719 C 185.933594 182.085938 189.0625 182.085938 190.988281 184.011719 Z M 190.988281 184.011719 " fill-opacity="1" fill-rule="evenodd"/><path fill="#ff6f00" d="M 211.929688 163.0625 C 198.449219 149.582031 176.546875 149.582031 163.066406 163.0625 C 161.136719 164.992188 161.136719 168.117188 163.066406 170.050781 C 164.992188 171.972656 168.117188 171.972656 170.046875 170.050781 C 179.679688 160.414062 195.316406 160.414062 204.949219 170.050781 C 206.878906 171.972656 210.003906 171.972656 211.929688 170.050781 C 213.859375 168.117188 213.859375 164.992188 211.929688 163.0625 Z M 211.929688 163.0625 " fill-opacity="1" fill-rule="evenodd"/><path fill="#ff6f00" d="M 225.894531 149.101562 C 204.703125 127.910156 170.292969 127.910156 149.101562 149.101562 C 147.175781 151.027344 147.175781 154.15625 149.101562 156.082031 C 151.027344 158.007812 154.15625 158.007812 156.082031 156.082031 C 173.421875 138.746094 201.574219 138.746094 218.914062 156.082031 C 220.839844 158.007812 223.96875 158.007812 225.894531 156.082031 C 227.820312 154.15625 227.820312 151.027344 225.894531 149.101562 Z M 225.894531 149.101562 " fill-opacity="1" fill-rule="evenodd"/><g clip-path="url(#b2a58bd55e)"><path fill="#a1b3c1" d="M 254.566406 261.546875 L 282.742188 289.71875 C 283.664062 290.648438 284.921875 291.164062 286.230469 291.164062 L 301.042969 291.164062 C 302.863281 291.164062 304.535156 290.164062 305.394531 288.558594 C 306.253906 286.953125 306.160156 285.003906 305.148438 283.488281 L 290.519531 261.546875 L 315.851562 261.546875 C 319.78125 261.546875 323.546875 259.984375 326.320312 257.207031 C 329.101562 254.429688 330.660156 250.664062 330.660156 246.734375 C 330.660156 216.976562 330.660156 128.394531 330.660156 98.636719 C 330.660156 94.707031 329.101562 90.9375 326.320312 88.164062 C 323.546875 85.386719 319.78125 83.824219 315.851562 83.824219 L 103.574219 83.824219 C 100.851562 83.824219 98.636719 86.039062 98.636719 88.761719 C 98.636719 91.488281 100.851562 93.699219 103.574219 93.699219 L 315.851562 93.699219 C 317.160156 93.699219 318.417969 94.21875 319.339844 95.144531 C 320.269531 96.070312 320.789062 97.328125 320.789062 98.636719 L 320.789062 246.734375 C 320.789062 248.042969 320.269531 249.300781 319.339844 250.226562 C 318.417969 251.152344 317.160156 251.671875 315.851562 251.671875 C 315.851562 251.671875 152.941406 251.671875 152.941406 251.671875 C 150.214844 251.671875 148.003906 253.882812 148.003906 256.609375 C 148.003906 259.332031 150.214844 261.546875 152.941406 261.546875 Z M 278.652344 261.546875 L 291.816406 281.292969 C 291.816406 281.292969 288.273438 281.292969 288.273438 281.292969 L 268.527344 261.546875 Z M 278.652344 261.546875 " fill-opacity="1" fill-rule="evenodd"/></g><g clip-path="url(#bd6b4c8540)"><path fill="#a1b3c1" d="M 84.476562 261.546875 L 69.847656 283.488281 C 68.835938 285.003906 68.742188 286.953125 69.601562 288.558594 C 70.460938 290.164062 72.132812 291.164062 73.953125 291.164062 L 88.765625 291.164062 C 90.074219 291.164062 91.332031 290.648438 92.253906 289.71875 L 120.429688 261.546875 L 123.320312 261.546875 C 126.046875 261.546875 128.257812 259.332031 128.257812 256.609375 C 128.257812 253.882812 126.046875 251.671875 123.320312 251.671875 C 123.320312 251.671875 79.304688 251.671875 59.144531 251.671875 C 57.835938 251.671875 56.578125 251.152344 55.65625 250.226562 C 54.726562 249.300781 54.207031 248.042969 54.207031 246.734375 L 54.207031 241.796875 L 310.914062 241.796875 C 313.640625 241.796875 315.851562 239.585938 315.851562 236.863281 C 315.851562 234.136719 313.640625 231.925781 310.914062 231.925781 L 54.207031 231.925781 L 54.207031 98.636719 C 54.207031 97.328125 54.726562 96.070312 55.65625 95.144531 C 56.578125 94.21875 57.835938 93.699219 59.144531 93.699219 C 59.144531 93.699219 88.765625 93.699219 88.765625 93.699219 C 91.488281 93.699219 93.703125 91.488281 93.703125 88.761719 C 93.703125 86.039062 91.488281 83.824219 88.765625 83.824219 L 59.144531 83.824219 C 55.214844 83.824219 51.449219 85.386719 48.675781 88.164062 C 45.894531 90.9375 44.335938 94.707031 44.335938 98.636719 C 44.335938 128.394531 44.335938 216.976562 44.335938 246.734375 C 44.335938 250.664062 45.894531 254.429688 48.675781 257.207031 C 51.449219 259.984375 55.214844 261.546875 59.144531 261.546875 Z M 106.46875 261.546875 L 86.722656 281.292969 C 86.722656 281.292969 83.179688 281.292969 83.179688 281.292969 L 96.34375 261.546875 Z M 106.46875 261.546875 " fill-opacity="1" fill-rule="evenodd"/></g><path fill="#a1b3c1" d="M 143.066406 256.609375 C 143.066406 256.933594 143.035156 257.253906 142.972656 257.570312 C 142.910156 257.890625 142.816406 258.199219 142.691406 258.496094 C 142.566406 258.796875 142.417969 259.082031 142.234375 259.351562 C 142.054688 259.621094 141.851562 259.871094 141.621094 260.097656 C 141.394531 260.328125 141.144531 260.535156 140.875 260.714844 C 140.605469 260.894531 140.320312 261.046875 140.019531 261.167969 C 139.722656 261.292969 139.414062 261.386719 139.09375 261.449219 C 138.777344 261.515625 138.457031 261.546875 138.132812 261.546875 C 137.808594 261.546875 137.484375 261.515625 137.167969 261.449219 C 136.851562 261.386719 136.542969 261.292969 136.242188 261.167969 C 135.941406 261.046875 135.65625 260.894531 135.386719 260.714844 C 135.117188 260.535156 134.871094 260.328125 134.640625 260.097656 C 134.410156 259.871094 134.207031 259.621094 134.027344 259.351562 C 133.847656 259.082031 133.695312 258.796875 133.570312 258.496094 C 133.445312 258.199219 133.351562 257.890625 133.289062 257.570312 C 133.226562 257.253906 133.195312 256.933594 133.195312 256.609375 C 133.195312 256.285156 133.226562 255.964844 133.289062 255.644531 C 133.351562 255.328125 133.445312 255.019531 133.570312 254.71875 C 133.695312 254.421875 133.847656 254.136719 134.027344 253.867188 C 134.207031 253.597656 134.410156 253.347656 134.640625 253.117188 C 134.871094 252.890625 135.117188 252.683594 135.386719 252.503906 C 135.65625 252.324219 135.941406 252.171875 136.242188 252.046875 C 136.542969 251.921875 136.851562 251.832031 137.167969 251.765625 C 137.484375 251.703125 137.808594 251.671875 138.132812 251.671875 C 138.457031 251.671875 138.777344 251.703125 139.09375 251.765625 C 139.414062 251.832031 139.722656 251.921875 140.019531 252.046875 C 140.320312 252.171875 140.605469 252.324219 140.875 252.503906 C 141.144531 252.683594 141.394531 252.890625 141.621094 253.117188 C 141.851562 253.347656 142.054688 253.597656 142.234375 253.867188 C 142.417969 254.136719 142.566406 254.421875 142.691406 254.71875 C 142.816406 255.019531 142.910156 255.328125 142.972656 255.644531 C 143.035156 255.964844 143.066406 256.285156 143.066406 256.609375 Z M 143.066406 256.609375 " fill-opacity="1" fill-rule="nonzero"/></svg>