<svg xmlns="http://www.w3.org/2000/svg" width="99" height="83" viewBox="0 0 99 83"><defs><clipPath id="45qda"><path fill="#fff" d="M0 83V0h99v83z"/></clipPath></defs><g><g><g><g><path fill="none" stroke="#a1b3c1" stroke-miterlimit="20" stroke-width="3" d="M6.102 8.215h3.083"/></g><g><path fill="none" stroke="#a1b3c1" stroke-miterlimit="20" stroke-width="3" d="M11.437 8.215h3.083"/></g><g><path fill="none" stroke="#a1b3c1" stroke-miterlimit="20" stroke-width="3" d="M16.775 8.215h3.082"/></g><g><path fill="none" stroke="#a1b3c1" stroke-miterlimit="20" stroke-width="6" d="M0 83v0V0v0h99v83z" clip-path="url(&quot;#45qda&quot;)"/></g><g><path fill="none" stroke="#a1b3c1" stroke-miterlimit="20" stroke-width="3" d="M.525 15.136h97.187"/></g></g><g><path fill="none" stroke="#ff6f00" stroke-miterlimit="20" stroke-width="3" d="M9.704 72.256v0-18.752 0H30.73v18.752z"/></g><g><path fill="none" stroke="#ff6f00" stroke-miterlimit="20" stroke-width="3" d="M9.704 45.04v0-18.752 0H30.73V45.04z"/></g><g><path fill="none" stroke="#ff6f00" stroke-miterlimit="20" stroke-width="3" d="M38.34 45.171v0-18.752 0h49.704V45.17z"/></g></g><g><path fill="none" stroke="#a1b3c1" stroke-linecap="round" stroke-miterlimit="20" stroke-width="3" d="M38 53.373h51.347"/></g><g><path fill="none" stroke="#a1b3c1" stroke-linecap="round" stroke-miterlimit="20" stroke-width="3" d="M38 72.492h51.347"/></g><g><path fill="none" stroke="#a1b3c1" stroke-linecap="round" stroke-miterlimit="20" stroke-width="3" d="M38 66.119h51.347"/></g><g><path fill="none" stroke="#a1b3c1" stroke-linecap="round" stroke-miterlimit="20" stroke-width="3" d="M38 59.746h51.347"/></g><g><path fill="#ff6f00" d="M23.627 35.693l-5.576 3.938v-7.5z"/></g></g></svg>