<?xml version="1.0" encoding="utf-8"?>
<!-- Generator: Adobe Illustrator 22.1.0, SVG Export Plug-In . SVG Version: 6.00 Build 0)  -->
<svg version="1.1" id="Layer_1" xmlns="http://www.w3.org/2000/svg" xmlns:xlink="http://www.w3.org/1999/xlink" x="0px" y="0px"
	 viewBox="0 0 960 1280" style="enable-background:new 0 0 960 1280;" xml:space="preserve">
<style type="text/css">
	.st0{fill:#EB9822;}
	.st1{fill:#48557D;}
</style>
<g id="LocationIcon">
	<g>
		<g id="XMLID_1_">
			<g>
				<path class="st0" d="M427.2,544.4c-0.2-59.6,47.9-107.9,107.1-107.9c59.2,0,107.1,48.3,106.9,107.9
					c-0.2,59.2-47.5,105.9-107.1,105.9C474.5,650.7,427.4,603.6,427.2,544.4z"/>
				<path class="st1" d="M745,521.9c-10.7-90.7-77.9-163.9-168.9-183.5c-86.2-18.7-178.7,22.7-224.5,99.8
					c-34.3,58-36.5,119.2-19.7,182.5c17.4,65.5,45.8,126.3,78.3,185.4c39.7,72.4,80.9,143.8,123.3,218.8
					c35.3-60.6,69.4-117.2,101.6-175c35.9-64.1,69-129.8,91.7-200.2C740.6,608.3,750.3,566.3,745,521.9z M840.9,513.8
					c0,21.9,0,43.8,0,65.9c-3.4,18.5-6.3,36.9-10.5,55c-18.5,77.5-51.1,149.5-90,218.4c-66.3,117.4-135.1,233.6-202.8,350.4
					c-0.8,1.4-2.2,2.6-3.9,4.5c-1.8-2.6-3.2-4.7-4.5-6.5c-39.7-67.3-79.9-134.7-119.5-202.2C358.7,911.9,307.4,824.5,269,730.4
					c-23.9-58.6-41.6-118.6-42-182.9c-0.6-142,97.1-266.7,235.3-298.9c17.8-4.3,35.9-6.3,53.9-9.5c11.8,0,23.5,0,35.3,0
					c2.6,0.6,5.1,1.8,7.7,2C690.9,251.8,800,344.7,831.8,473.2C835.5,486.4,838.1,500.2,840.9,513.8z"/>
			</g>
		</g>
	</g>
</g>
</svg>
