<?xml version="1.0" encoding="utf-8"?>
<!-- Generator: Adobe Illustrator 22.1.0, SVG Export Plug-In . SVG Version: 6.00 Build 0)  -->
<svg version="1.1" id="Layer_1" xmlns="http://www.w3.org/2000/svg" xmlns:xlink="http://www.w3.org/1999/xlink" x="0px" y="0px"
	 viewBox="0 0 960 1280" style="enable-background:new 0 0 960 1280;" xml:space="preserve">
<style type="text/css">
	.st0{fill:#FFFFFF;}
	.st1{fill:#4077A3;}
	.st2{fill:#FFFFFF;stroke:#74B5E3;stroke-width:148.3828;stroke-miterlimit:10;}
	.st3{fill:none;stroke:#BCC5D6;stroke-width:34.2422;stroke-miterlimit:10;}
	.st4{fill:#EB9822;}
</style>
<path class="st0" d="M-57.7,376.2"/>
<path class="st1" d="M920.4,581.5c0-224.6-182.1-406.6-406.7-406.6S107.1,357,107.1,581.5c0,224.6,182.1,406.7,406.7,406.7
	S920.4,806.1,920.4,581.5z"/>
<path class="st2" d="M819,540.2c0-191.5-155.3-346.7-346.8-346.7S125.4,348.7,125.4,540.2c0,191.5,155.3,346.8,346.8,346.8
	S819,731.7,819,540.2z"/>
<g>
	<path class="st3" d="M388.1,685.4v-41.5c0,0,2.1-23.8-10.6-52.7c0,0-44.6-61.7-43.6-96.5c0,0-13.8-133.7,122.4-145.3
		c0,0,129.9-1.1,140.5,103.3l37.3,60.1c0,0,16,23,0,36.8l-36.2,13.8l1.1,21.1c0,0,6.4,47.3-51.1,59.4h-19.2l2.1,41.5"/>
	<g>
		<path class="st4" d="M406.8,529.3V518l55.8-23.5v14.9l-33.6,14.4l33.6,13.9v15L406.8,529.3z"/>
		<path class="st4" d="M481,561.1l-9.2-2l21.4-85.4l9.1,2.1L481,561.1z"/>
		<path class="st4" d="M511.9,552.8v-15l33.6-13.9l-33.6-14.4v-14.9l55.8,23.5v11.3L511.9,552.8z"/>
	</g>
</g>
</svg>
