<?xml version="1.0" encoding="utf-8"?>
<!-- Generator: Adobe Illustrator 22.1.0, SVG Export Plug-In . SVG Version: 6.00 Build 0)  -->
<svg version="1.1" id="Layer_1" xmlns="http://www.w3.org/2000/svg" xmlns:xlink="http://www.w3.org/1999/xlink" x="0px" y="0px"
	 viewBox="0 0 960 1280" style="enable-background:new 0 0 960 1280;" xml:space="preserve">
<style type="text/css">
	.st0{fill:#4077A3;}
	.st1{fill:#FFFFFF;stroke:#74B5E3;stroke-width:107.0086;stroke-miterlimit:10;}
	.st2{fill:#EB9822;}
	.st3{fill:none;stroke:#BCC5D6;stroke-width:25.1785;stroke-miterlimit:10;}
</style>
<g>
	<path class="st0" d="M933.5,656.8c0-241.3-195.6-436.9-437-436.9s-437,195.6-437,436.9c0,241.3,195.6,437,437,437
		S933.5,898.1,933.5,656.8z"/>
	<path class="st1" d="M824.5,612.4c0-205.8-166.8-372.6-372.6-372.6S79.3,406.6,79.3,612.4C79.3,818.2,246.1,985,451.9,985
		S824.5,818.2,824.5,612.4z"/>
	<g>
		<g id="XMLID_8_">
			<g>
				<polygon class="st2" points="363.5,701.9 382,721.8 362.9,747 358.6,736.2 336.7,766.8 332.4,751.3 300.2,770.4 315.5,733 
					300.2,728.1 331.7,707.4 321.1,702.7 347,684.6 				"/>
			</g>
			<g>
				<path class="st3" d="M371.7,694.5l10,9.7l42.1,40.6c10.3-5.2,20.2-10.5,29.7-15.9c129.5-73.5,174.2-161.1,188.7-223.1
					c11-47.1,4.5-79.4,4.5-79.4l-4.5-4.7c0,0-32.2-6.9-79.4,3.5c-40.9,9-93,30.9-145.2,81.4c-24.6,23.8-49.2,53.9-72.7,91.9
					c-2.5,3.9-4.9,8-7.3,12.1c-5.6,9.5-11.1,19.4-16.4,29.8l40.1,42.7l9.5,10.1"/>
				<polyline class="st3" points="563.1,426.9 642.1,505.8 643,506.7 				"/>
				<path class="st3" d="M344.8,598.6l0.7,0.1c0,0,19.5-34.3,72.6-91.9l-0.5,0l-50.8-3.9l-99.2,88.1L344.8,598.6z"/>
				<path class="st3" d="M558.8,652.4l4.5,51.3l-87.1,100.1l-8.6-77.8C467.7,726,501.8,706.2,558.8,652.4z"/>
				<line class="st3" x1="451.9" y1="726.3" x2="341.2" y2="613"/>
				<circle class="st3" cx="520.7" cy="549.6" r="38.3"/>
				<polygon class="st3" points="361.2,683.2 370.7,692.9 371.7,693.6 381.7,704.1 403,726.7 369,788.4 358.3,764.9 326.3,810.9 
					314.4,787.4 257.2,803 256.9,803.2 274.8,746.6 251.7,733.8 298.9,703.5 275.8,692 338.8,660.3 				"/>
			</g>
		</g>
	</g>
</g>
</svg>
