<?xml version="1.0" encoding="utf-8"?>
<!-- Generator: Adobe Illustrator 22.1.0, SVG Export Plug-In . SVG Version: 6.00 Build 0)  -->
<svg version="1.1" id="Layer_1" xmlns="http://www.w3.org/2000/svg" xmlns:xlink="http://www.w3.org/1999/xlink" x="0px" y="0px"
	 viewBox="0 0 960 1280" style="enable-background:new 0 0 960 1280;" xml:space="preserve">
<style type="text/css">
	.st0{fill:#EB9822;}
	.st1{fill:none;stroke:#48557D;stroke-width:76.8141;stroke-miterlimit:10;}
	.st2{fill:#48557D;stroke:#48557D;stroke-width:38.407;stroke-miterlimit:10;}
</style>
<g>
	
		<ellipse transform="matrix(0.1602 -0.9871 0.9871 0.1602 -130.1997 1003.5784)" class="st0" cx="524.7" cy="578.3" rx="75.4" ry="75.4"/>
	<g>
		<g id="XMLID_3_">
			<g>
				<path class="st1" d="M402.3,201.2c49-33.4,168.1,101.1,266.1,300.6c97.8,199.3,137.1,388.3,87.9,421.5
					c-9.2,6.4-20.9,6.6-34.5,1.8c-58.7-21.3-152.1-140.4-231.4-302.4C392.4,423.4,353,234.6,402.3,201.2z"/>
				<path class="st1" d="M402.3,201.2c-58,5.9-83.3,56.3-65.9,165c44.4,118.2-29.7,213.8-141.3,302.4
					c-52.3,31.4-116,69.4-149.7,128.8c-45.3,80.2,34.3,203.3,109,193.8c38-4.8,73-25.1,105.3-49.9c11-8.4,22-17.6,32.5-26.6
					c13-11.2,25.5-22.6,38.5-33.6c28.8-24.8,58.5-47.7,91.9-61.5c48.6-20.2,107.9-16.7,144.4,25.9C610,895.9,662,924,721.6,925.1
					c4.4,0.2,8.8,0.2,13.4-0.2"/>
				<path class="st1" d="M259.6,941.4l155.2,133.4c7.9,7,17.8,11.2,27.7,11.6c27.7,1.1,42.4-11.9,40.7-42.4
					c-0.9-17.8-9.2-34.1-21.3-45.1L330.6,881.1l0,0"/>
			</g>
		</g>
	</g>
	<path class="st2" d="M655.7,179.2c7.3-1.1,11.9,2,13,9.7c0.4,2.4-0.2,5.1-1.8,7L619.2,259c-1.5,2-3.7,3.5-6.4,3.7
		c-7.3,0.7-11.4-2.4-12.7-9.7c-0.4-2.4,0.2-5.1,1.8-7.3l47.9-62.9C651.3,181,653.5,179.7,655.7,179.2z"/>
	<path class="st2" d="M750.4,273.9c7.5-0.2,11.4,3.5,11.6,11.4c0,2.4-1.1,5.1-2.9,6.8l-55.6,56c-1.8,1.8-4.2,2.9-6.8,2.9
		c-7.3-0.2-11-4-11.2-11.2c-0.2-2.6,0.9-5.1,2.9-6.8l55.8-56.3C745.8,275,748,274.2,750.4,273.9z"/>
	<path class="st2" d="M852.1,383.2c8.1,0.7,11.4,5.1,9.2,13.4c-0.7,2.6-2.4,5.1-5.1,6.8l-76.5,52.5c-2.4,1.8-5.5,2.6-8.1,2.2
		c-7.7-1.1-10.8-5.5-9-13.2c0.7-2.6,2.4-5.3,5.1-6.8l76.7-52.5C846.9,383.8,849.5,382.9,852.1,383.2z"/>
	<path class="st2" d="M926.8,713c5.3-5.1,5.7-10.5,0.2-16.3c-1.8-1.8-4.2-2.9-6.8-2.9l-79.1-0.2c-2.6,0-5.1,0.9-6.8,2.9
		c-4.8,5.3-4.8,10.5,0,15.8c1.8,2,4.2,2.9,6.8,2.9l79.1,0.2C922.9,715.4,925.1,714.8,926.8,713z"/>
	<path class="st2" d="M908.6,580.3c4.6-5.7,4.2-11.2-2-16.3c-2-1.5-4.6-2.2-7-1.8l-78.2,10.5c-2.6,0.4-4.8,1.5-6.4,3.7
		c-4.2,5.9-3.3,11.2,2.2,15.8c2,1.5,4.6,2.2,7,2l78.5-10.5C904.9,583.4,907.1,582.3,908.6,580.3z"/>
</g>
</svg>
