<?xml version="1.0" encoding="utf-8"?>
<!-- Generator: Adobe Illustrator 22.1.0, SVG Export Plug-In . SVG Version: 6.00 Build 0)  -->
<svg version="1.1" id="Layer_1" xmlns="http://www.w3.org/2000/svg" xmlns:xlink="http://www.w3.org/1999/xlink" x="0px" y="0px"
	 viewBox="0 0 960 1280" style="enable-background:new 0 0 960 1280;" xml:space="preserve">
<style type="text/css">
	.st0{fill:#FFFFFF;}
	.st1{fill:#4077A3;}
	.st2{fill:#FFFFFF;stroke:#74B5E3;stroke-width:148.3828;stroke-miterlimit:10;}
	.st3{fill:none;stroke:#BCC5D6;stroke-width:34.2422;stroke-miterlimit:10;}
	.st4{fill:#EB9822;}
	.st5{fill:#FFFFFF;stroke:#74B5E3;stroke-width:153.1781;stroke-miterlimit:10;}
	.st6{fill:none;stroke:#BCC5D6;stroke-width:29.4573;stroke-miterlimit:10;}
	.st7{fill:#BCC5D6;}
</style>
<path class="st0" d="M-57.7,376.2"/>
<path class="st1" d="M920.4,581.5c0-224.6-182.1-406.6-406.7-406.6S107.1,357,107.1,581.5c0,224.6,182.1,406.7,406.7,406.7
	S920.4,806.1,920.4,581.5z"/>
<path class="st2" d="M819,540.2c0-191.5-155.3-346.7-346.8-346.7S125.4,348.7,125.4,540.2S280.7,887,472.2,887S819,731.7,819,540.2z
	"/>
<g>
	<path class="st3" d="M388.1,685.4v-41.5c0,0,2.1-23.8-10.6-52.7c0,0-44.6-61.7-43.6-96.5c0,0-13.8-133.7,122.4-145.3
		c0,0,129.9-1.1,140.5,103.3l37.3,60.1c0,0,16,23,0,36.8l-36.2,13.8l1.1,21.1c0,0,6.4,47.3-51.1,59.4h-19.2l2.1,41.5"/>
	<g>
		<path class="st4" d="M406.8,529.3V518l55.8-23.5v14.9L429,523.8l33.6,13.9v15L406.8,529.3z"/>
		<path class="st4" d="M481,561.1l-9.2-2l21.4-85.4l9.1,2.1L481,561.1z"/>
		<path class="st4" d="M511.9,552.8v-15l33.6-13.9l-33.6-14.4v-14.9l55.8,23.5v11.3L511.9,552.8z"/>
	</g>
</g>
<g>
	<path class="st1" d="M920.4,568.4c0-231.8-187.9-419.8-419.8-419.8S80.7,336.6,80.7,568.4c0,231.9,187.9,419.8,419.8,419.8
		S920.4,800.3,920.4,568.4z"/>
	<path class="st5" d="M815.6,525.7c0-197.7-160.3-358-358-358s-358,160.3-358,358s160.3,358,358,358S815.6,723.5,815.6,525.7z"/>
	<circle class="st6" cx="463.4" cy="385.3" r="71.1"/>
	<path class="st6" d="M300.2,594.1l31.6,101c0.2,0.5,0.7,0.9,1.2,0.9h263.5c1.4,0,2.6-0.9,3-2.2l26.9-93.1
		C633,577.8,615.9,555,592,555H329C308.6,555,294.1,574.7,300.2,594.1z"/>
	<path class="st6" d="M593.8,737.4h-261c-1.4,0-2.5-1.1-2.5-2.5V729c0-1.4,1.1-2.5,2.5-2.5h261c1.4,0,2.5,1.1,2.5,2.5v5.9
		C596.3,736.3,595.2,737.4,593.8,737.4z"/>
	<path class="st4" d="M491.3,473.1c1.3-0.8,2.9-1,4.3-0.4c5.4,2.5,11.2,2.7,17,2.6c26.1-0.6,68.1,15.3,68,55.1
		c0,2.8-2.3,5.1-5.1,5.1H351c-2.6,0-4.7-2.1-4.7-4.7c-0.4-40.1,41.8-56.2,68-55.6c5.8,0.1,11.5-0.1,16.9-2.6c1.4-0.6,3-0.4,4.3,0.5
		C453.7,485.8,472.3,484.9,491.3,473.1z"/>
	<g id="XMLID_4_">
		<g>
			<path class="st7" d="M461,635.9c6.6,0,12-5.3,11.9-11.9c0-6.8-5.5-11.9-11.9-11.9c-6.6,0-12,5.3-11.9,12
				C449.1,630.6,454.5,635.9,461,635.9z M456.6,601.3c0.1-0.8,0.6-1.3,1.5-1.3c2,0,4,0,5.9,0c0.8,0,1.4,0.5,1.5,1.3
				c0.2,1.2,0.3,2.4,0.5,3.7c0,0.3,0.1,0.5,0.5,0.6c1.4,0.4,2.7,0.9,4,1.7c0.2,0.1,0.3,0.1,0.5,0c1-0.8,2.1-1.6,3.1-2.4
				c0.5-0.4,1.4-0.4,1.8,0c1.4,1.5,2.9,2.9,4.3,4.4c0.6,0.6,0.6,1.3,0.1,2c-0.8,1-1.6,2-2.4,3c-0.1,0.1-0.1,0.3,0,0.4
				c0.7,1.3,1.2,2.6,1.7,4c0.1,0.3,0.2,0.4,0.5,0.4c1.3,0.1,2.6,0.3,3.8,0.5c0.8,0.1,1.3,0.7,1.3,1.4c0,2,0,4,0,6
				c0,0.8-0.5,1.4-1.3,1.5c-1.2,0.2-2.5,0.3-3.8,0.5c-0.3,0-0.5,0.1-0.5,0.5c-0.4,1.4-1,2.7-1.7,4c-0.1,0.1,0,0.3,0,0.4
				c0.8,1.1,1.6,2.1,2.4,3.1c0.5,0.6,0.4,1.4-0.1,1.9c-1.4,1.4-2.7,2.7-4,4.1c-0.8,0.8-1.5,0.8-2.4,0.2c-0.9-0.8-1.9-1.5-2.8-2.3
				c-0.2-0.1-0.3-0.2-0.5,0c-1.2,0.7-2.6,1.2-4,1.7c-0.3,0.1-0.4,0.2-0.4,0.5c-0.1,1.1-0.3,2.3-0.4,3.4c-0.1,0.8-0.4,1.3-1.1,1.7
				c-2.3,0-4.6,0-6.8,0c-0.7-0.3-1-0.9-1.1-1.7c-0.1-1.2-0.3-2.3-0.4-3.4c0-0.2-0.1-0.4-0.4-0.5c-1.4-0.4-2.7-0.9-4-1.7
				c-0.2-0.1-0.3-0.1-0.5,0c-1,0.8-2,1.6-3,2.4c-0.6,0.5-1.4,0.5-2-0.1c-1.4-1.4-2.8-2.8-4.2-4.2c-0.6-0.6-0.6-1.4-0.1-2
				c0.8-1,1.6-2,2.4-3c0.1-0.1,0.1-0.3,0-0.4c-0.7-1.3-1.2-2.6-1.7-4c-0.1-0.3-0.2-0.4-0.5-0.4c-1.1-0.1-2.3-0.3-3.4-0.4
				c-0.8-0.1-1.4-0.4-1.7-1.1c0-2.3,0-4.6,0-6.8c0.3-0.7,0.9-1,1.7-1.1c1.2-0.1,2.3-0.3,3.4-0.4c0.2,0,0.4-0.1,0.5-0.4
				c0.4-1.4,0.9-2.7,1.7-4c0-0.1,0-0.3,0-0.5c-0.8-1-1.6-2-2.4-3c-0.5-0.6-0.5-1.4,0.1-2c1.4-1.4,2.8-2.9,4.3-4.3
				c0.6-0.6,1.4-0.6,2-0.1c1,0.8,2,1.6,3.1,2.4c0.1,0.1,0.3,0.1,0.4,0c1.3-0.7,2.6-1.2,4-1.7c0.3-0.1,0.4-0.3,0.5-0.6
				C456.3,603.8,456.4,602.6,456.6,601.3z"/>
		</g>
	</g>
</g>
</svg>
