<?xml version="1.0" encoding="utf-8"?>
<!-- Generator: Adobe Illustrator 22.1.0, SVG Export Plug-In . SVG Version: 6.00 Build 0)  -->
<svg version="1.1" id="Layer_1" xmlns="http://www.w3.org/2000/svg" xmlns:xlink="http://www.w3.org/1999/xlink" x="0px" y="0px"
	 viewBox="0 0 960 1280" style="enable-background:new 0 0 960 1280;" xml:space="preserve">
<style type="text/css">
	.st0{fill:none;stroke:#48557D;stroke-width:89.5739;stroke-miterlimit:10;}
	.st1{fill:#EB9822;}
</style>
<g id="Hourglass">
	<g id="XMLID_2_">
		<g>
			<path class="st0" d="M483.3,724C302,718.7,235.8,556.6,226.1,373.5c-1-18.3-1.3-36.7-1.3-55.3c7.6-25.7,116.3-55,136.4-58.9
				c115.8-22,148.2-30.4,252.7-16.8c84.6,11,165,28.5,226.8,75.7c-0.8,18.9-1.8,37.5-3.4,55.3c-17.8,210.8-88.3,346-253.8,350.4"/>
			<path class="st0" d="M232.6,373.3c115.5,39.8,496,41.4,600.3,0"/>
			<path class="st0" d="M483.3,724c-176.3-6.3-246.7,167.3-256.9,352.5c-1,18.3-1.6,36.9-1.3,55.3c7.6,25.7,116,55,136.4,58.9
				c115.8,22,148.2,30.4,252.7,16.8c84.3-11,164.7-28.5,226.8-75.7c-0.8-18.9-1.8-37.5-3.4-55.3c-17.8-211.3-88.5-348.3-253.8-352.8
				"/>
			<path class="st0" d="M232.6,1076.7c115.2-39.8,495.8-41.4,600.3,0"/>
		</g>
	</g>
	<path class="st1" d="M326.1,500.3c7.1,104.8,63.9,160,170.5,165.5V781c-95.9,7.9-157.4,56.6-170.5,139.3L302,987.7
		c152.2-24.4,302-25.4,448.9,0c-10.2-107.4-50.8-192.5-187.3-206.4l2.4-118.4c106.6,2.4,156.9-60.5,173.1-162.4h-413V500.3z"/>
</g>
</svg>
