<?xml version="1.0" encoding="utf-8"?>
<!-- Generator: Adobe Illustrator 22.1.0, SVG Export Plug-In . SVG Version: 6.00 Build 0)  -->
<svg version="1.1" id="Layer_1" xmlns="http://www.w3.org/2000/svg" xmlns:xlink="http://www.w3.org/1999/xlink" x="0px" y="0px"
	 viewBox="0 0 400 465.4" style="enable-background:new 0 0 400 465.4;" xml:space="preserve">
<style type="text/css">
	.st0{fill:#4278A4;}
	.st1{fill:#FFFFFF;stroke:#76B6E3;stroke-width:62.171;stroke-miterlimit:10;}
	.st2{fill:#FFFFFF;}
	.st3{fill:none;stroke:#BCC5D6;stroke-width:15.3829;stroke-miterlimit:10;}
	.st4{fill:#EC9923;}
</style>
<path class="st0" d="M383.8,278.6c0-94.1-76.3-170.4-170.4-170.4S42.9,184.5,42.9,278.6c0,94.1,76.3,170.4,170.4,170.4
	S383.8,372.7,383.8,278.6z"/>
<path class="st1" d="M341.2,261.3c0-80.2-65.1-145.3-145.3-145.3S50.6,181,50.6,261.3s65.1,145.3,145.3,145.3
	S341.2,341.6,341.2,261.3z"/>
<path class="st2" d="M-792.4,433.1"/>
<g>
	<path class="st3" d="M155.4,328.8v-18.6c0,0,0.9-10.7-4.8-23.7c0,0-20-27.7-19.6-43.4c0,0-6.2-60.1,55-65.3c0,0,58.4-0.5,63.1,46.4
		l16.8,27c0,0,7.2,10.3,0,16.5l-16.3,6.2l0.5,9.5c0,0,2.9,21.2-23,26.7h-8.6l0.9,18.6"/>
	<g>
		<path class="st4" d="M163.8,258.7v-5.1l25.1-10.6v6.7l-15.1,6.5l15.1,6.2v6.7L163.8,258.7z"/>
		<path class="st4" d="M197.1,273l-4.1-0.9l9.6-38.4l4.1,0.9L197.1,273z"/>
		<path class="st4" d="M211,269.2v-6.7l15.1-6.2l-15.1-6.5v-6.7l25.1,10.6v5.1L211,269.2z"/>
	</g>
</g>
</svg>
