<?xml version="1.0" encoding="utf-8"?>
<!-- Generator: Adobe Illustrator 22.1.0, SVG Export Plug-In . SVG Version: 6.00 Build 0)  -->
<svg version="1.1" id="Layer_1" xmlns="http://www.w3.org/2000/svg" xmlns:xlink="http://www.w3.org/1999/xlink" x="0px" y="0px"
	 viewBox="0 0 960 1280" style="enable-background:new 0 0 960 1280;" xml:space="preserve">
<style type="text/css">
	.st0{enable-background:new    ;}
	.st1{fill:#EB9822;}
	.st2{fill:none;stroke:#48557D;stroke-width:115.1485;stroke-miterlimit:10;}
	.st3{fill:none;stroke:#48557D;stroke-width:57.5744;stroke-miterlimit:10;}
</style>
<g>
	<g class="st0">
		<path class="st1" d="M378.1,941.2l16.9-41.6c-19.9-11.1-34.8-22.6-45.1-34.6c-10.3-12-17.1-27.6-20.5-46.3
			c-3.4-18.8-1.5-39.3,5.8-61.7l45.1,9.2c-5.8,23.7-6.8,42.5-3,56.4c5.8,19.6,16.4,33.5,32,41.9l54-132.6
			c-15.8-10.3-30.8-23.9-44.4-41.2c-10.3-12.8-16.2-27.3-18.2-43.4c-1.9-16,0.6-32.5,7.5-49.1c12-29.7,32.3-49.3,60.9-59.2
			c19-6.6,42.9-5.8,71.8,2.8l8.1-19.9l24.6,10l-8.1,19.9c23.3,12.2,39.7,27.1,49.1,44.9c12.2,22.6,14.5,47.8,7.5,75.6L576.3,661
			c4.3-17.3,4.1-32,0-44c-4.3-12-12.6-22-25-30.3l-48.9,120.2c18.8,13.9,31.2,23.5,36.7,29.3c10.7,10.9,18.4,22.2,23.3,33.7
			c4.9,11.5,7.3,23.7,7,36.9c-0.2,13-3,26.1-8.3,39.3c-11.7,28.8-30.8,49.3-57,61.1c-26.3,11.7-54.2,12.6-83.9,2.1l-17.1,42.1
			L378.1,941.2z M433.8,874.2c17.1,4.5,33.3,3,48.7-4.7c15.4-7.7,26.9-20.5,34-38.2c6.2-15.2,7.3-28.8,3.6-41
			c-3.8-12.2-15.4-26.5-34.8-42.9L433.8,874.2z M526.5,576c-17.3-4.1-32.7-2.8-46.3,3.8c-13.7,6.6-23.3,17.3-29.3,31.6
			c-5.8,14.3-6.6,27.8-2.6,40.6c4.1,12.8,14.5,25.8,31.2,39.3L526.5,576z"/>
	</g>
	<polygon class="st2" points="328.3,356.9 680.7,208 830,561.7 576.9,1184.1 75,980.1 	"/>
	<circle class="st3" cx="590.8" cy="430.3" r="39.7"/>
</g>
</svg>
