<?xml version="1.0" encoding="utf-8"?>
<!-- Generator: Adobe Illustrator 22.1.0, SVG Export Plug-In . SVG Version: 6.00 Build 0)  -->
<svg version="1.1" id="Layer_1" xmlns="http://www.w3.org/2000/svg" xmlns:xlink="http://www.w3.org/1999/xlink" x="0px" y="0px"
	 viewBox="0 0 400 465.4" style="enable-background:new 0 0 400 465.4;" xml:space="preserve">
<style type="text/css">
	.st0{fill:#4278A4;}
	.st1{fill:#FFFFFF;stroke:#76B6E3;stroke-width:62.171;stroke-miterlimit:10;}
	.st2{fill:#FFFFFF;}
	.st3{fill:none;stroke:#BCC5D6;stroke-width:15.3829;stroke-miterlimit:10;}
	.st4{fill:#EC9923;}
	.st5{fill:none;stroke:#BCC5D6;stroke-width:11.9559;stroke-miterlimit:10;}
	.st6{fill:#ED9A24;}
	.st7{fill:#BCC5D6;}
</style>
<path class="st0" d="M383.8,278.6c0-94.1-76.3-170.4-170.4-170.4S42.9,184.5,42.9,278.6c0,94.1,76.3,170.4,170.4,170.4
	S383.8,372.7,383.8,278.6z"/>
<path class="st1" d="M341.2,261.3c0-80.2-65.1-145.3-145.3-145.3S50.6,181,50.6,261.3s65.1,145.3,145.3,145.3
	S341.2,341.6,341.2,261.3z"/>
<path class="st2" d="M-792.4,433.1"/>
<g>
	<path class="st3" d="M-492.5,429.5v-18.6c0,0,0.9-10.7-4.8-23.7c0,0-20-27.7-19.6-43.4c0,0-6.2-60.1,55-65.3
		c0,0,58.4-0.5,63.1,46.4l16.8,27c0,0,7.2,10.3,0,16.5l-16.3,6.2l0.5,9.5c0,0,2.9,21.2-23,26.7h-8.6l0.9,18.6"/>
	<g>
		<path class="st4" d="M-484.1,359.4v-5.1l25.1-10.6v6.7l-15.1,6.5l15.1,6.2v6.7L-484.1,359.4z"/>
		<path class="st4" d="M-450.8,373.7l-4.1-0.9l9.6-38.4l4.1,0.9L-450.8,373.7z"/>
		<path class="st4" d="M-436.9,370v-6.7l15.1-6.2l-15.1-6.5v-6.7l25.1,10.6v5.1L-436.9,370z"/>
	</g>
</g>
<circle class="st5" cx="196.5" cy="197.7" r="28.9"/>
<path class="st5" d="M130.2,282.4l12.8,41c0.1,0.2,0.3,0.4,0.5,0.4h106.9c0.6,0,1.1-0.4,1.2-0.9l10.9-37.8c2.7-9.3-4.3-18.5-14-18.5
	H141.9C133.6,266.6,127.8,274.6,130.2,282.4z"/>
<path class="st5" d="M249.4,340.6H143.5c-0.6,0-1-0.4-1-1v-2.4c0-0.6,0.4-1,1-1h105.9c0.6,0,1,0.4,1,1v2.4
	C250.4,340.2,250,340.6,249.4,340.6z"/>
<path class="st6" d="M207.8,233.3c0.5-0.3,1.2-0.4,1.7-0.2c2.2,1,4.5,1.1,6.9,1.1c10.6-0.2,27.6,6.2,27.6,22.4
	c0,1.1-0.9,2.1-2.1,2.1h-91.1c-1.1,0-1.9-0.9-1.9-1.9c-0.2-16.3,17-22.8,27.6-22.6c2.4,0,4.7,0,6.9-1.1c0.6-0.2,1.2-0.2,1.7,0.2
	C192.5,238.5,200.1,238.1,207.8,233.3z"/>
<g id="XMLID_4_">
	<g>
		<path class="st7" d="M195.5,299.4c2.7,0,4.9-2.2,4.8-4.8c0-2.8-2.2-4.8-4.8-4.8c-2.7,0-4.9,2.2-4.8,4.9
			C190.7,297.2,192.9,299.4,195.5,299.4z M193.7,285.4c0-0.3,0.2-0.5,0.6-0.5c0.8,0,1.6,0,2.4,0c0.3,0,0.6,0.2,0.6,0.5
			c0.1,0.5,0.1,1,0.2,1.5c0,0.1,0,0.2,0.2,0.2c0.6,0.2,1.1,0.4,1.6,0.7c0.1,0,0.1,0,0.2,0c0.4-0.3,0.9-0.6,1.3-1
			c0.2-0.2,0.6-0.2,0.7,0c0.6,0.6,1.2,1.2,1.7,1.8c0.2,0.2,0.2,0.5,0,0.8c-0.3,0.4-0.6,0.8-1,1.2c0,0,0,0.1,0,0.2
			c0.3,0.5,0.5,1.1,0.7,1.6c0,0.1,0.1,0.2,0.2,0.2c0.5,0,1.1,0.1,1.5,0.2c0.3,0,0.5,0.3,0.5,0.6c0,0.8,0,1.6,0,2.4
			c0,0.3-0.2,0.6-0.5,0.6c-0.5,0.1-1,0.1-1.5,0.2c-0.1,0-0.2,0-0.2,0.2c-0.2,0.6-0.4,1.1-0.7,1.6c0,0,0,0.1,0,0.2
			c0.3,0.4,0.6,0.9,1,1.3c0.2,0.2,0.2,0.6,0,0.8c-0.6,0.6-1.1,1.1-1.6,1.7c-0.3,0.3-0.6,0.3-1,0.1c-0.4-0.3-0.8-0.6-1.1-0.9
			c-0.1,0-0.1-0.1-0.2,0c-0.5,0.3-1.1,0.5-1.6,0.7c-0.1,0-0.2,0.1-0.2,0.2c0,0.4-0.1,0.9-0.2,1.4c0,0.3-0.2,0.5-0.4,0.7
			c-0.9,0-1.9,0-2.8,0c-0.3-0.1-0.4-0.4-0.4-0.7c0-0.5-0.1-0.9-0.2-1.4c0-0.1,0-0.2-0.2-0.2c-0.6-0.2-1.1-0.4-1.6-0.7
			c-0.1,0-0.1,0-0.2,0c-0.4,0.3-0.8,0.6-1.2,1c-0.2,0.2-0.6,0.2-0.8,0c-0.6-0.6-1.1-1.1-1.7-1.7c-0.2-0.2-0.2-0.6,0-0.8
			c0.3-0.4,0.6-0.8,1-1.2c0,0,0-0.1,0-0.2c-0.3-0.5-0.5-1.1-0.7-1.6c0-0.1-0.1-0.2-0.2-0.2c-0.4,0-0.9-0.1-1.4-0.2
			c-0.3,0-0.6-0.2-0.7-0.4c0-0.9,0-1.9,0-2.8c0.1-0.3,0.4-0.4,0.7-0.4c0.5,0,0.9-0.1,1.4-0.2c0.1,0,0.2,0,0.2-0.2
			c0.2-0.6,0.4-1.1,0.7-1.6c0,0,0-0.1,0-0.2c-0.3-0.4-0.6-0.8-1-1.2c-0.2-0.2-0.2-0.6,0-0.8c0.6-0.6,1.1-1.2,1.7-1.7
			c0.2-0.2,0.6-0.2,0.8,0c0.4,0.3,0.8,0.6,1.3,1c0,0,0.1,0,0.2,0c0.5-0.3,1.1-0.5,1.6-0.7c0.1,0,0.2-0.1,0.2-0.2
			C193.6,286.4,193.6,285.9,193.7,285.4z"/>
	</g>
</g>
</svg>
