<?xml version="1.0" encoding="utf-8"?>
<!-- Generator: Adobe Illustrator 22.1.0, SVG Export Plug-In . SVG Version: 6.00 Build 0)  -->
<svg version="1.1" id="Layer_1" xmlns="http://www.w3.org/2000/svg" xmlns:xlink="http://www.w3.org/1999/xlink" x="0px" y="0px"
	 viewBox="0 0 960 1280" style="enable-background:new 0 0 960 1280;" xml:space="preserve">
<style type="text/css">
	.st0{fill:#4077A3;}
	.st1{fill:#FFFFFF;stroke:#74B5E3;stroke-width:107.0086;stroke-miterlimit:10;}
	.st2{fill:#EB9822;}
	.st3{fill:none;stroke:#BCC5D6;stroke-width:25.1785;stroke-miterlimit:10;}
</style>
<path class="st0" d="M933.5,656.8c0-241.3-195.6-436.9-437-436.9s-437,195.6-437,436.9s195.6,437,437,437S933.5,898.1,933.5,656.8z"
	/>
<path class="st1" d="M858.5,646.4c0-205.8-166.8-372.6-372.6-372.6S113.3,440.6,113.3,646.4S280.1,1019,485.9,1019
	S858.5,852.2,858.5,646.4z"/>
<g>
	<g id="XMLID_8_">
		<g>
			<polygon class="st2" points="399.5,735.9 418,755.8 398.9,781 394.6,770.2 372.7,800.8 368.4,785.3 336.2,804.4 351.5,767 
				336.2,762.1 367.7,741.4 357.1,736.7 383,718.6 			"/>
		</g>
		<g>
			<path class="st3" d="M407.7,728.5l10,9.7l42.1,40.6c10.3-5.2,20.2-10.5,29.7-15.9C619,689.4,663.7,601.8,678.2,539.8
				c11-47.1,4.5-79.4,4.5-79.4l-4.5-4.7c0,0-32.2-6.9-79.4,3.5c-40.9,9-93,30.9-145.2,81.4c-24.6,23.8-49.2,53.9-72.7,91.9
				c-2.5,3.9-4.9,8-7.3,12.1c-5.6,9.5-11.1,19.4-16.4,29.8l40.1,42.7l9.5,10.1"/>
			<polyline class="st3" points="599.1,460.9 678.1,539.8 679,540.7 			"/>
			<path class="st3" d="M380.8,632.6l0.7,0.1c0,0,19.5-34.3,72.6-91.9h-0.5l-50.8-3.9L303.6,625L380.8,632.6z"/>
			<path class="st3" d="M594.8,686.4l4.5,51.3l-87.1,100.1l-8.6-77.8C503.7,760,537.8,740.2,594.8,686.4z"/>
			<line class="st3" x1="487.9" y1="760.3" x2="377.2" y2="647"/>
			<circle class="st3" cx="556.7" cy="583.6" r="38.3"/>
			<polygon class="st3" points="397.2,717.2 406.7,726.9 407.7,727.6 417.7,738.1 439,760.7 405,822.4 394.3,798.9 362.3,844.9 
				350.4,821.4 293.2,837 292.9,837.2 310.8,780.6 287.7,767.8 334.9,737.5 311.8,726 374.8,694.3 			"/>
		</g>
	</g>
</g>
</svg>
