<?xml version="1.0" encoding="utf-8"?>
<!-- Generator: Adobe Illustrator 22.1.0, SVG Export Plug-In . SVG Version: 6.00 Build 0)  -->
<svg version="1.1" id="Layer_1" xmlns="http://www.w3.org/2000/svg" xmlns:xlink="http://www.w3.org/1999/xlink" x="0px" y="0px"
	 viewBox="0 0 960 1280" style="enable-background:new 0 0 960 1280;" xml:space="preserve">
<style type="text/css">
	.st0{fill:#4077A3;}
	.st1{fill:#FFFFFF;stroke:#74B5E3;stroke-width:153.1781;stroke-miterlimit:10;}
	.st2{fill:none;stroke:#BCC5D6;stroke-width:29.4573;stroke-miterlimit:10;}
	.st3{fill:#EB9822;}
	.st4{fill:#BCC5D6;}
</style>
<g>
	<path class="st0" d="M928.1,668.5c0-231.8-187.9-419.8-419.8-419.8S88.4,436.7,88.4,668.5c0,231.9,187.9,419.8,419.8,419.8
		S928.1,900.4,928.1,668.5z"/>
	<path class="st1" d="M823.3,625.8c0-197.7-160.3-358-358-358s-358,160.3-358,358c0,197.7,160.3,358,358,358
		S823.3,823.6,823.3,625.8z"/>
	<circle class="st2" cx="471.1" cy="485.4" r="71.1"/>
	<path class="st2" d="M307.9,694.2l31.6,101c0.2,0.5,0.7,0.9,1.2,0.9h263.5c1.4,0,2.6-0.9,3-2.2l26.9-93.1
		c6.6-22.9-10.5-45.7-34.4-45.7H336.7C316.3,655.1,301.8,674.8,307.9,694.2z"/>
	<path class="st2" d="M601.5,837.5h-261c-1.4,0-2.5-1.1-2.5-2.5v-5.9c0-1.4,1.1-2.5,2.5-2.5h261c1.4,0,2.5,1.1,2.5,2.5v5.9
		C604,836.4,602.9,837.5,601.5,837.5z"/>
	<path class="st3" d="M499,573.2c1.3-0.8,2.9-1,4.3-0.4c5.4,2.5,11.2,2.7,17,2.6c26.1-0.6,68.1,15.3,68,55.1c0,2.8-2.3,5.1-5.1,5.1
		l-224.5,0c-2.6,0-4.7-2.1-4.7-4.7c-0.4-40.1,41.8-56.2,68-55.6c5.8,0.1,11.5-0.1,16.9-2.6c1.4-0.6,3-0.4,4.3,0.5
		C461.4,585.9,480,585,499,573.2z"/>
	<g id="XMLID_4_">
		<g>
			<path class="st4" d="M468.7,736c6.6,0,12-5.3,11.9-11.9c0-6.8-5.5-11.9-11.9-11.9c-6.6,0-12,5.3-11.9,12
				C456.8,730.7,462.2,736,468.7,736z M464.3,701.4c0.1-0.8,0.6-1.3,1.5-1.3c2,0,4,0,5.9,0c0.8,0,1.4,0.5,1.5,1.3
				c0.2,1.2,0.3,2.4,0.5,3.7c0,0.3,0.1,0.5,0.5,0.6c1.4,0.4,2.7,0.9,4,1.7c0.2,0.1,0.3,0.1,0.5,0c1-0.8,2.1-1.6,3.1-2.4
				c0.5-0.4,1.4-0.4,1.8,0c1.4,1.5,2.9,2.9,4.3,4.4c0.6,0.6,0.6,1.3,0.1,2c-0.8,1-1.6,2-2.4,3c-0.1,0.1-0.1,0.3,0,0.4
				c0.7,1.3,1.2,2.6,1.7,4c0.1,0.3,0.2,0.4,0.5,0.4c1.3,0.1,2.6,0.3,3.8,0.5c0.8,0.1,1.3,0.7,1.3,1.4c0,2,0,4,0,6
				c0,0.8-0.5,1.4-1.3,1.5c-1.2,0.2-2.5,0.3-3.8,0.5c-0.3,0-0.5,0.1-0.5,0.5c-0.4,1.4-1,2.7-1.7,4c-0.1,0.1,0,0.3,0,0.4
				c0.8,1.1,1.6,2.1,2.4,3.1c0.5,0.6,0.4,1.4-0.1,1.9c-1.4,1.4-2.7,2.7-4,4.1c-0.8,0.8-1.5,0.8-2.4,0.2c-0.9-0.8-1.9-1.5-2.8-2.3
				c-0.2-0.1-0.3-0.2-0.5,0c-1.2,0.7-2.6,1.2-4,1.7c-0.3,0.1-0.4,0.2-0.4,0.5c-0.1,1.1-0.3,2.3-0.4,3.4c-0.1,0.8-0.4,1.3-1.1,1.7
				c-2.3,0-4.6,0-6.8,0c-0.7-0.3-1-0.9-1.1-1.7c-0.1-1.2-0.3-2.3-0.4-3.4c0-0.2-0.1-0.4-0.4-0.5c-1.4-0.4-2.7-0.9-4-1.7
				c-0.2-0.1-0.3-0.1-0.5,0c-1,0.8-2,1.6-3,2.4c-0.6,0.5-1.4,0.5-2-0.1c-1.4-1.4-2.8-2.8-4.2-4.2c-0.6-0.6-0.6-1.4-0.1-2
				c0.8-1,1.6-2,2.4-3c0.1-0.1,0.1-0.3,0-0.4c-0.7-1.3-1.2-2.6-1.7-4c-0.1-0.3-0.2-0.4-0.5-0.4c-1.1-0.1-2.3-0.3-3.4-0.4
				c-0.8-0.1-1.4-0.4-1.7-1.1c0-2.3,0-4.6,0-6.8c0.3-0.7,0.9-1,1.7-1.1c1.2-0.1,2.3-0.3,3.4-0.4c0.2,0,0.4-0.1,0.5-0.4
				c0.4-1.4,0.9-2.7,1.7-4c0-0.1,0-0.3,0-0.5c-0.8-1-1.6-2-2.4-3c-0.5-0.6-0.5-1.4,0.1-2c1.4-1.4,2.8-2.9,4.3-4.3
				c0.6-0.6,1.4-0.6,2-0.1c1,0.8,2,1.6,3.1,2.4c0.1,0.1,0.3,0.1,0.4,0c1.3-0.7,2.6-1.2,4-1.7c0.3-0.1,0.4-0.3,0.5-0.6
				C464,703.9,464.1,702.7,464.3,701.4z"/>
		</g>
		<g>
		</g>
	</g>
</g>
</svg>
