<svg xmlns="http://www.w3.org/2000/svg" width="110" height="94" viewBox="0 0 110 94"><g><g><g><g><path fill="none" stroke="#fff" stroke-miterlimit="20" stroke-width="3" d="M3.235 80.102A1.235 1.235 0 0 1 2 78.867V3.235C2 2.553 2.553 2 3.235 2h103.442c.682 0 1.235.553 1.235 1.235v75.632c0 .682-.553 1.235-1.235 1.235z"/></g><g><path fill="none" stroke="#fff" stroke-miterlimit="20" stroke-width="3" d="M98.296 65.587h9.616"/></g><g><path fill="none" stroke="#fff" stroke-miterlimit="20" stroke-width="3" d="M2 65.587h62.95"/></g><g><g><path fill="none" stroke="#fff" stroke-miterlimit="20" stroke-width="3" d="M28.226 92.29h53.46"/></g><g><g><path fill="none" stroke="#fff" stroke-miterlimit="20" stroke-width="3" d="M41.717 80.102V92.29"/></g><g><path fill="none" stroke="#fff" stroke-miterlimit="20" stroke-width="3" d="M68.196 80.102V92.29"/></g></g></g></g><g><g><g><path fill="none" stroke="#fff" stroke-miterlimit="20" stroke-width="3" d="M22.116 29.598v0l-7.331-7.332v0l7.331-7.33v0"/></g><g><path fill="none" stroke="#fff" stroke-miterlimit="20" stroke-width="3" d="M40.548 14.935v0l7.331 7.331v0l-7.331 7.332v0"/></g></g><g><path fill="none" stroke="#fff" stroke-miterlimit="20" stroke-width="3" d="M35.73 11.527l-8.796 21.478"/></g></g><g><g><path fill="none" stroke="#fff" stroke-miterlimit="20" stroke-width="3" d="M97.003 54.4h-30.76"/></g><g><path fill="none" stroke="#fff" stroke-miterlimit="20" stroke-width="3" d="M78.796 63.928h5.654"/></g><g><path fill="none" stroke="#fff" stroke-miterlimit="20" stroke-width="3" d="M97.008 21.045h-30.76"/></g><g><path fill="none" stroke="#fff" stroke-miterlimit="20" stroke-width="3" d="M66.824 73.455a1.874 1.874 0 0 1-1.874-1.874v-58.18c0-1.035.839-1.874 1.874-1.874h29.598c1.035 0 1.874.84 1.874 1.874v58.18a1.874 1.874 0 0 1-1.874 1.874z"/></g></g><g><path fill="none" stroke="#fff" stroke-linecap="square" stroke-miterlimit="20" stroke-width="3" d="M11.527 42.491H50.66"/></g><g><path fill="none" stroke="#fff" stroke-linecap="square" stroke-miterlimit="20" stroke-width="3" d="M11.527 52.019h29.604"/></g></g></g></svg>