<svg xmlns="http://www.w3.org/2000/svg" width="44" height="45" viewBox="0 0 44 45"><defs><clipPath id="mqbna"><path fill="#fff" d="M0 22.663c0-12.15 9.85-22 22-22s22 9.85 22 22-9.85 22-22 22-22-9.85-22-22z"/></clipPath></defs><g><g><g><path fill="#333" d="M17.894 32.47c8.294 0 12.806-6.83 12.806-12.807v-.61c.854-.61 1.586-1.463 2.196-2.317-.854.366-1.708.61-2.561.732.975-.61 1.585-1.464 1.951-2.44-.854.488-1.83.854-2.805 1.098-.854-.976-2.074-1.463-3.293-1.463-2.44 0-4.513 2.073-4.513 4.512 0 .366 0 .732.122.976-3.781-.244-7.074-1.951-9.27-4.757-.365.61-.61 1.464-.61 2.318 0 1.585.854 2.927 1.952 3.78-.732 0-1.463-.243-2.073-.61a4.457 4.457 0 0 0 3.659 4.392c-.366.122-.732.122-1.22.122-.244 0-.61 0-.854-.122.61 1.83 2.196 3.049 4.27 3.17-1.586 1.22-3.538 1.952-5.611 1.952-.366 0-.732 0-1.098-.122 1.951 1.464 4.39 2.196 6.952 2.196"/></g><g><path fill="none" stroke="#333" stroke-miterlimit="20" stroke-width="3" d="M0 22.663c0-12.15 9.85-22 22-22s22 9.85 22 22-9.85 22-22 22-22-9.85-22-22z" clip-path="url(&quot;#mqbna&quot;)"/></g></g></g></svg>