<svg xmlns="http://www.w3.org/2000/svg" width="98" height="96" viewBox="0 0 98 96"><g><g><g><g><path fill="none" stroke="#ff6f00" stroke-linecap="square" stroke-miterlimit="20" stroke-width="3" d="M56.344 80.183H42.156"/></g><g><path fill="none" stroke="#ff6f00" stroke-linecap="square" stroke-miterlimit="20" stroke-width="3" d="M56.344 72.892H42.156"/></g><g><path fill="none" stroke="#ff6f00" stroke-linecap="square" stroke-miterlimit="20" stroke-width="3" d="M56.344 64.291H42.156"/></g><g><path fill="none" stroke="#ff6f00" stroke-linecap="square" stroke-miterlimit="20" stroke-width="3" d="M56.344 55.711H42.156"/></g><g><path fill="none" stroke="#ff6f00" stroke-linecap="square" stroke-miterlimit="20" stroke-width="3" d="M58.71 27.78h-.302"/></g><g><path fill="none" stroke="#a1b3c1" stroke-miterlimit="20" stroke-width="3" d="M77.605 21.132v0H96.5v63.78H77.605v0z"/></g><g><path fill="none" stroke="#a1b3c1" stroke-miterlimit="20" stroke-width="3" d="M11.46 20.967v0V6.73v0h37.79v0"/></g><g><path fill="none" stroke="#a1b3c1" stroke-miterlimit="20" stroke-width="3" d="M87.04 20.474v0V2v0H49.25v14.166"/></g><g><path fill="none" stroke="#a1b3c1" stroke-miterlimit="20" stroke-width="3" d="M87.04 79.394v-4.707"/></g><g><path fill="none" stroke="#a1b3c1" stroke-miterlimit="20" stroke-width="3" d="M87.04 70.857v-4.73"/></g><g><path fill="none" stroke="#a1b3c1" stroke-miterlimit="20" stroke-width="3" d="M2 21.132v0h18.895v63.78H2v0z"/></g><g><path fill="none" stroke="#a1b3c1" stroke-miterlimit="20" stroke-width="3" d="M11.46 79.394v-4.707"/></g><g><path fill="none" stroke="#a1b3c1" stroke-miterlimit="20" stroke-width="3" d="M11.46 70.857v-4.73"/></g><g><path fill="none" stroke="#ff6f00" stroke-miterlimit="20" stroke-width="3" d="M30.378 16.189v0h37.79v78.183h-37.79v0z"/></g></g></g></g></svg>