<svg xmlns="http://www.w3.org/2000/svg" width="97" height="95" viewBox="0 0 97 95"><g><g><g><path fill="none" stroke="#fff" stroke-linecap="square" stroke-miterlimit="20" stroke-width="3" d="M55.537 79.022H41.56"/></g><g><path fill="none" stroke="#fff" stroke-linecap="square" stroke-miterlimit="20" stroke-width="3" d="M55.537 71.839H41.56"/></g><g><path fill="none" stroke="#fff" stroke-linecap="square" stroke-miterlimit="20" stroke-width="3" d="M55.537 63.366H41.56"/></g><g><path fill="none" stroke="#fff" stroke-linecap="square" stroke-miterlimit="20" stroke-width="3" d="M55.537 54.914H41.56"/></g><g><path fill="none" stroke="#fff" stroke-linecap="square" stroke-miterlimit="20" stroke-width="3" d="M57.867 27.398h-.297"/></g><g><path fill="none" stroke="#fff" stroke-miterlimit="20" stroke-width="3" d="M76.482 20.848v0h18.615v62.833H76.482v0z"/></g><g><path fill="none" stroke="#fff" stroke-miterlimit="20" stroke-width="3" d="M11.319 20.685v0V6.66v0h37.23v0"/></g><g><path fill="none" stroke="#fff" stroke-miterlimit="20" stroke-width="3" d="M85.778 20.2v0V2v0h-37.23v13.955"/></g><g><path fill="none" stroke="#fff" stroke-miterlimit="20" stroke-width="3" d="M85.778 78.244v-4.636"/></g><g><path fill="none" stroke="#fff" stroke-miterlimit="20" stroke-width="3" d="M85.778 69.834v-4.66"/></g><g><path fill="none" stroke="#fff" stroke-miterlimit="20" stroke-width="3" d="M2 20.848v0h18.615v62.833H2v0z"/></g><g><path fill="none" stroke="#fff" stroke-miterlimit="20" stroke-width="3" d="M11.319 78.244v-4.636"/></g><g><path fill="none" stroke="#fff" stroke-miterlimit="20" stroke-width="3" d="M11.319 69.834v-4.66"/></g><g><path fill="none" stroke="#fff" stroke-miterlimit="20" stroke-width="3" d="M29.956 15.978v0h37.23V93h-37.23v0z"/></g></g></g></svg>