<svg xmlns="http://www.w3.org/2000/svg" width="83" height="84" viewBox="0 0 83 84"><g><g><path fill="#fff" d="M31.215 81.722c0-1.01-.034-3.686-.054-7.239-11.545 2.572-13.98-5.704-13.98-5.704-1.889-4.917-4.608-6.224-4.608-6.224-3.77-2.641.284-2.587.284-2.587 4.167.3 6.357 4.387 6.357 4.387 3.703 6.501 9.71 4.625 12.08 3.536.375-2.751 1.449-4.627 2.633-5.689-9.215-1.074-18.904-4.726-18.904-21.03 0-4.645 1.618-8.444 4.272-11.419-.425-1.076-1.852-5.402.41-11.26 0 0 3.484-1.146 11.41 4.36 3.308-.942 6.861-1.418 10.392-1.433 3.522.015 7.073.49 10.388 1.433 7.921-5.506 11.4-4.36 11.4-4.36 2.267 5.855.842 10.181.415 11.26 2.659 2.975 4.265 6.774 4.265 11.418 0 16.347-9.706 19.945-18.951 20.997 1.493 1.314 2.817 3.909 2.817 7.881 0 5.69-.051 10.278-.051 11.673 0 1.14.748 2.462 2.854 2.045C71.121 78.132 83 62.192 83 43.397 83 19.898 64.417.847 41.498.847 18.583.846 0 19.898 0 43.398c.002 18.799 11.891 34.749 28.383 40.374 2.074.39 2.832-.924 2.832-2.05z"/></g></g></svg>