<svg xmlns="http://www.w3.org/2000/svg" width="91" height="94" viewBox="0 0 91 94"><g><g><g><g><g><path fill="none" stroke="#fff" stroke-miterlimit="20" stroke-width="3" d="M81.961 2v0H8.824A6.824 6.824 0 0 0 2 8.822V92.29h73.077v0V8.822A6.822 6.822 0 0 1 81.899 2v0a6.823 6.823 0 0 1 6.823 6.822v9.602h-6.828v0"/></g></g></g><g><g><path fill="none" stroke="#fff" stroke-miterlimit="20" stroke-width="3" d="M28.18 22.75v0h-3.546a2.452 2.452 0 0 0-2.451 2.451v4.363l-3.01 4.603v0l3.01 4.603v4.364a2.452 2.452 0 0 0 2.451 2.451h3.545v0"/></g><g><path fill="none" stroke="#fff" stroke-miterlimit="20" stroke-width="3" d="M48.898 45.585v0h3.545a2.452 2.452 0 0 0 2.451-2.451V38.77v0l3.01-4.603v0l-3.01-4.603v0-4.363a2.452 2.452 0 0 0-2.451-2.452h-3.545v0"/></g><g><path fill="none" stroke="#fff" stroke-miterlimit="20" stroke-width="3" d="M43.072 15.899l-9.134 36.537"/></g></g><g><path fill="none" stroke="#fff" stroke-linecap="square" stroke-miterlimit="20" stroke-width="3" d="M19.172 59.304h38.733"/></g><g><path fill="none" stroke="#fff" stroke-linecap="square" stroke-miterlimit="20" stroke-width="3" d="M19.172 68.438h38.733"/></g><g><path fill="none" stroke="#fff" stroke-linecap="square" stroke-miterlimit="20" stroke-width="3" d="M28.179 77.573h20.72"/></g></g></g></svg>