<svg xmlns="http://www.w3.org/2000/svg" width="128" height="93" viewBox="0 0 128 93"><g><g><g><g><g><g><g><g><path fill="none" stroke="#fff" stroke-miterlimit="20" stroke-width="3" d="M34.195 11.858v0-4.756A5.104 5.104 0 0 1 39.297 2h72.3a5.102 5.102 0 0 1 5.103 5.102v57.544a5.102 5.102 0 0 1-5.103 5.102H77.272v0"/></g><g><path fill="none" stroke="#fff" stroke-miterlimit="20" stroke-width="3" d="M70.36 56.59h46.34"/></g><g><g><path fill="none" stroke="#fff" stroke-miterlimit="20" stroke-width="3" d="M86.913 69.749v15"/></g></g></g></g></g><g><g><path fill="none" stroke="#fff" stroke-miterlimit="20" stroke-width="3" d="M2 92.872v0l2.373-26.136c.104-.666.26-1.316.462-1.948 1.574-4.898 6.556-7.891 11.699-7.883l35.349.056c5.132.008 10.092 3.004 11.664 7.89.204.633.36 1.286.465 1.955l2.356 26.066v0"/></g></g><g><path fill="none" stroke="#fff" stroke-miterlimit="20" stroke-width="3" d="M53.081 92.87v0-13.712c0-5.481-4.441-9.925-9.923-9.925H25.234c-5.481 0-9.923 4.444-9.923 9.925v13.711"/></g><g><path fill="none" stroke="#fff" stroke-miterlimit="20" stroke-width="3" d="M65.022 84.75h62.926"/></g></g><g><g><g><path fill="none" stroke="#fff" stroke-miterlimit="20" stroke-width="3" d="M71.59 38.997v0l-8.427-8.428v0l8.427-8.427v0"/></g><g><path fill="none" stroke="#fff" stroke-miterlimit="20" stroke-width="3" d="M92.778 22.142v0l8.428 8.427v0l-8.428 8.428v0"/></g></g><g><path fill="none" stroke="#fff" stroke-miterlimit="20" stroke-width="3" d="M87.24 18.224l-10.11 24.69"/></g></g></g><g><path fill="none" stroke="#fff" stroke-miterlimit="20" stroke-width="3" d="M47.753 35.874c0 7.494-6.075 13.57-13.569 13.57-7.494 0-13.569-6.076-13.569-13.57 0-7.494 6.075-13.569 13.569-13.569 7.494 0 13.57 6.075 13.57 13.57z"/></g></g></g></svg>