<svg xmlns="http://www.w3.org/2000/svg" width="140" height="25" viewBox="0 0 140 25"><g><g><g><path fill="#fff" d="M52.212 9.034c0 1.989-1.491 3.48-3.978 3.48h-3.978V5.553h3.895c2.487 0 4.061 1.16 4.061 3.48zM48.566.994h-9.282v22.874h5.055v-6.795h3.812c5.139 0 9.2-2.735 9.2-8.04v-.082c0-4.724-3.315-7.956-8.785-7.956z"/></g><g><path fill="#fff" d="M64.56 9.862V6.3h-4.972v17.487h4.973V17.32c0-4.144 1.989-6.133 5.304-6.133h.249v-5.22c-2.901-.084-4.559 1.49-5.553 3.894z"/></g><g><path fill="#fff" d="M76.247 13.675c.414-2.238 1.74-3.73 3.812-3.73s3.398 1.492 3.73 3.73zm3.812-7.708c-5.056 0-8.62 4.144-8.62 9.117v.082c0 5.387 3.896 9.034 9.117 9.034 3.15 0 5.553-1.243 7.128-3.232l-2.818-2.486c-1.41 1.243-2.57 1.823-4.227 1.823-2.238 0-3.812-1.16-4.31-3.398h12.183c0-.497.083-.912.083-1.326 0-5.056-2.735-9.614-8.536-9.614z"/></g><g><path fill="#fff" d="M104.839 15.084c0 2.9-1.989 4.806-4.31 4.806-2.32 0-4.226-1.906-4.226-4.806V15c0-2.901 1.906-4.807 4.226-4.807 2.404 0 4.31 1.906 4.31 4.89zm-2.984-9.117c-2.569 0-4.226 1.243-5.47 2.818V0h-4.972v23.786h4.973v-2.238c1.16 1.409 2.817 2.57 5.47 2.57 4.143 0 7.956-3.233 7.956-9.034V15c0-5.802-3.896-9.034-7.957-9.034z"/></g><g><path fill="#fff" d="M112.712 4.475V.083h5.222v4.392z"/></g><g><path fill="#fff" d="M112.878 23.786V6.299h4.973v17.487z"/></g><g><path fill="#fff" d="M134.343 15.084c0 2.9-1.906 4.806-4.227 4.806-2.32 0-4.31-1.906-4.31-4.806V15c0-2.901 1.99-4.807 4.31-4.807 2.321 0 4.227 1.906 4.227 4.89zM134.26 0v8.62c-1.16-1.41-2.818-2.57-5.47-2.57-4.143 0-7.956 3.232-7.956 9.034v.082c0 5.802 3.895 9.034 7.956 9.034 2.57 0 4.227-1.243 5.47-2.818v2.486h4.973V0z"/></g><g><path fill="#ff6f00" d="M19.973 4.724H.746A.743.743 0 0 1 0 3.978c0-.414.331-.746.746-.746H19.89c.415 0 .746.332.746.746.083.414-.248.746-.663.746z"/></g><g><path fill="#ff6f00" d="M27.35 8.868H4.391a.743.743 0 0 1-.745-.746c0-.414.331-.746.745-.746H27.35c.415 0 .746.332.746.746a.743.743 0 0 1-.746.746z"/></g><g><path fill="#ff6f00" d="M25.029 21.3H2.072a.743.743 0 0 1-.746-.747c0-.414.332-.745.746-.745h22.957c.414 0 .746.331.746.745 0 .332-.332.746-.746.746z"/></g><g><path fill="#ff6f00" d="M17.238 13.012H2.984a.743.743 0 0 1-.746-.746c0-.415.331-.746.746-.746h14.254c.415 0 .746.331.746.746a.743.743 0 0 1-.746.746z"/></g><g><path fill="#ff6f00" d="M23.371 17.155H7.045a.743.743 0 0 1-.746-.745c0-.415.331-.746.746-.746H23.37c.415 0 .746.331.746.746 0 .331-.331.745-.746.745z"/></g></g></g></svg>