<?xml version="1.0" encoding="utf-8"?>
<!-- Generator: Adobe Illustrator 21.0.0, SVG Export Plug-In . SVG Version: 6.00 Build 0)  -->
<svg version="1.1" id="Layer_1" xmlns="http://www.w3.org/2000/svg" xmlns:xlink="http://www.w3.org/1999/xlink" x="0px" y="0px"
	 viewBox="0 0 445.9 64.6" style="enable-background:new 0 0 445.9 64.6;" xml:space="preserve">
<style type="text/css">
	.st0{fill:#4FC8ED;}
	.st1{fill:#231F20;}
</style>
<title>PubMatic_Logo</title>
<path class="st0" d="M119.9,0.4H97.3c-1.4,0-2.5,1.1-2.5,2.5V61c0,1.4,1.1,2.5,2.5,2.5c0,0,0,0,0,0h6.8c1.4,0,2.5-1.1,2.5-2.5
	c0,0,0,0,0,0v-1.4l0,0V42.3h14c12.5,0,21.3-8.1,21.3-20.6C141.9,9.5,134.7,0.4,119.9,0.4 M118.4,32.3h-11.8v-22H118
	c6.8,0,11.5,2.6,11.5,11.3C129.5,27.9,125.9,32.3,118.4,32.3 M187.4,23.3L187.4,23.3v-2.1c0-1.4-1.1-2.5-2.5-2.5h-5.8
	c-1.4,0-2.5,1.1-2.5,2.5v2.1l0,0v19.5c0,5.4-2.5,11.4-10.6,11.4c-5.5,0-8-2.6-8-8.8V21.2c0-1.4-1.1-2.5-2.5-2.5c0,0,0,0,0,0h-5.8
	c-1.4,0-2.5,1.1-2.5,2.5c0,0,0,0,0,0v1l0,0v26.2c0,13,8.8,16.2,16.4,16.2c6.1,0,10.5-2.4,12.9-5.5h0.2v1.8l0,0V61
	c0,1.4,1.1,2.5,2.5,2.5h5.8c1.4,0,2.5-1.1,2.5-2.5c0,0,0,0,0,0v-0.1l0,0L187.4,23.3z M218.2,17.6c-4.7-0.1-9.3,1.6-12.8,4.9V7.3l0,0
	V2.9c0-1.4-1.1-2.5-2.5-2.5h-5.8c-1.4,0-2.5,1.1-2.5,2.5c0,0,0,0,0,0v4.4l0,0v46.6l0,0V61c0,1.4,1.1,2.5,2.5,2.5l0,0h5.8
	c1.4,0,2.5-1.1,2.5-2.5v0v-1.8h0.2c2.7,3.2,6.1,5.4,12.6,5.4c11.6,0,19.6-10.6,19.6-23.5S229.8,17.6,218.2,17.6 M215.8,54.7
	c-8.2,0-10.6-7.1-10.6-13.6c0-6.5,2.4-13.6,10.6-13.6s10.5,7.1,10.6,13.6C226.3,47.6,223.9,54.7,215.8,54.7"/>
<path class="st1" d="M303.9,60.4L303.9,60.4V61c0,1.4-1.1,2.5-2.5,2.5c0,0,0,0,0,0H295c-1.4,0-2.5-1.1-2.5-2.5v0V11.5l0,0v-0.6h-0.2
	l-5.1,21.8l0,0L282.9,51l-2.3,9.8l0,0l-0.1,0.3c-0.3,1.4-1.1,2.5-2.5,2.5l0,0h-7.3l0,0c-1.3-0.2-2.4-1.2-2.5-2.5V61l0,0l-11.7-49.5
	h-0.3v49l0,0V61c0,1.4-1.1,2.5-2.5,2.5h-6.4c-1.4,0-2.5-1.1-2.5-2.5c0,0,0,0,0,0V2.8l0,0c0.1-1.4,1.2-2.4,2.5-2.4H261
	c1.1,0,2,0.8,2.3,1.8l0,0v0.2v0.1l11.1,46.9h0.2l11-46.9c0.2-1.1,1.2-2,2.4-2h13.2c1.4,0,2.5,1.1,2.5,2.5l0,0L303.9,60.4z
	 M378.6,18.6h-5.5V5.3c0-1.4-1.1-2.5-2.5-2.5c0,0,0,0,0,0h-5.8c-1.4,0-2.5,1.1-2.5,2.5c0,0,0,0,0,0v13.3h-5.5c-1.1,0-2,0.9-2,2v4.6
	c0,1.1,0.9,2,2,2h5.5V61c0,1.4,1.1,2.5,2.5,2.5c0,0,0,0,0,0h5.8c1.4,0,2.5-1.1,2.5-2.5c0,0,0,0,0,0V27.3h5.5c1.1,0,2-0.9,2-2v-4.6
	C380.7,19.6,379.8,18.7,378.6,18.6 M397.7,21.3c0-1.4-1.1-2.5-2.5-2.5l0,0h-5.7c-1.4,0-2.6,1.1-2.6,2.5c0,0,0,0,0,0V61
	c0,1.4,1.1,2.5,2.5,2.5c0,0,0,0,0,0h5.7c1.4,0,2.5-1.1,2.5-2.5v0L397.7,21.3z M397.8,5.9c-0.2-3.1-2.8-5.4-5.9-5.2s-5.4,2.8-5.2,5.9
	c0.2,2.9,2.6,5.3,5.6,5.2C395.4,11.7,397.9,9.1,397.8,5.9 M443.1,46.5h-4.6c-1.7,0-2.7,1.1-3.6,2.7l-0.1,0.2c-1.7,3.2-5,5.2-8.6,5.2
	c-7.8,0-11.7-6.6-11.7-13.6s3.9-13.6,11.7-13.6c3.6,0.1,6.9,2.1,8.6,5.2L435,33c0.9,1.6,1.9,2.7,3.6,2.7h4.6c2.2,0,3.1-1.4,2.7-3.2
	v-0.1c-0.4-1.7-1.1-3.4-1.9-4.9l-0.1-0.3c-3.1-5.4-8.3-9.6-17.5-9.6c-14.6,0-23,10.1-23,23.5s8.4,23.5,23,23.5
	c9.2,0,14.4-4.3,17.5-9.6l0.1-0.3c0.8-1.6,1.5-3.2,1.9-4.9v-0.1C446.2,47.9,445.3,46.5,443.1,46.5 M350.6,55.5L350.6,55.5V61
	c0,1.4-1.1,2.5-2.5,2.5h-5.8c-1.4,0-2.5-1.1-2.5-2.5v-1.5l0,0c-4.1,3.4-9.3,5.2-14.7,5.1c-8.5,0-15.3-5.4-15.3-14.1s7-12.7,13.7-14
	l4.5-0.9c3.9-0.8,9-1.7,11.7-2.7v-1.3c0-4.4-3.8-5.7-8.5-5.7c-5.5,0-7.9,1.3-8.4,5.5l0,0c-0.1,0.4-0.3,0.8-0.6,1.1v0.1l0,0
	c-0.5,0.5-1.3,0.8-2,0.8l-5.7-0.3c-2-0.1-2.4-1.2-2.3-2.6v-0.1l0,0c1-9.2,9.8-12.8,19.1-12.8c9.7,0,19.3,2,19.3,14.7L350.6,55.5z
	 M339.8,41.1c-1.6,0.8-3.4,1.3-5.1,1.6l-6,1.2c-4.1,0.8-7.5,1.9-7.5,6.2c0,3.4,3.1,5.6,7,5.6c5.1,0,11.5-2.5,11.5-8.2L339.8,41.1z"
	/>
<rect y="0.4" class="st0" width="63.2" height="63.2"/>
</svg>
