<?xml version="1.0" encoding="utf-8"?>
<!-- Generator: Adobe Illustrator 24.0.3, SVG Export Plug-In . SVG Version: 6.00 Build 0)  -->
<svg version="1.1" id="Layer_1" xmlns="http://www.w3.org/2000/svg" xmlns:xlink="http://www.w3.org/1999/xlink" x="0px" y="0px"
	 viewBox="0 0 1292.2 418.6" style="enable-background:new 0 0 1292.2 418.6;" xml:space="preserve" width="166" height="54">
<path d="M39.4,270.3v-253l62.6,253h64.9l63-254.9v254.9H270V0h-75.7l-59.5,244.9L75.3,0H0v270.3H39.4L39.4,270.3z M388.1,272.3
	c25.1,0,47.9-10,64.9-26.6v24.7h37.8V77.2H453V102c-17-16.6-39.8-26.6-64.9-26.6c-52.5,0-95,44-95,98.5
	C293.1,227.9,335.6,272.3,388.1,272.3L388.1,272.3z M392,236.7c-34,0-61-28.2-61-63s27-63,61-63c34,0,61,28.2,61,63
	S426,236.7,392,236.7L392,236.7z M606.7,75.3c-53.7,0-92.7,40.9-92.7,94.2c0,39,23.6,70.3,49,82.6c39,18.9,58.3,3.9,85.4,26.6
	c13.9,11.6,20.1,27.8,20.1,45.6c0,32.4-25.9,58.3-57.9,58.3c-32.8,0-58.7-25.9-58.7-59.9c0-18.5,6.6-34,14.3-44.4h-40.6
	c-7.7,13.1-11.6,29.4-11.6,46c0,51.8,42.9,94.2,96.2,94.2c53.3,0,96.2-42.5,96.2-94.2c0-32.1-15.8-59.9-40.6-76.9
	c24.7-16.6,41.3-44.4,40.9-76.5V77.2h-36.7v23.6C653.4,85,631.4,75.3,606.7,75.3L606.7,75.3z M610.6,228.6
	c-32.8,0-58.7-26.3-58.7-59.1c0-32.8,25.9-59.5,58.7-59.5c32.8,0,58.7,26.6,58.7,59.5C669.3,202.4,643.4,228.6,610.6,228.6
	L610.6,228.6z M771.6,270.3V161.4c0-29,22-51,49.4-51c27.4,0,49.4,22,49.4,51v108.9h37.8V159.5c0-50.6-33.2-84.2-79.6-84.2
	c-22.4,0-42.9,10.4-57.2,27.4V77.2h-37.8v193.1H771.6L771.6,270.3z M973.6,43.6V0H935v43.6H973.6L973.6,43.6z M973.2,270.3V77.2
	h-37.8v193.1H973.2L973.2,270.3z M1061.3,270.3V111.2h35.1v-34h-35.1V0h-37.8v77.2h-35.1v34h35.1v159.1H1061.3L1061.3,270.3z
	 M1246.6,210.1c-12.4,19.7-28.6,26.6-49.4,26.6c-29,0-52.9-20.5-59.1-47.9h154.1v-15.1c0-54.8-43.3-98.9-96.9-98.9
	c-53.3,0-96.9,44-96.9,98.9c0,54.5,44.4,98.9,98.9,98.9c41.7,0,76.9-25.5,91.9-62.6H1246.6L1246.6,210.1z M1195.3,110.8
	c27.4,0,49.8,19.3,56.8,46h-113.5C1145.5,130.1,1167.9,110.8,1195.3,110.8L1195.3,110.8z"/>
</svg>
