<?xml version="1.0" encoding="UTF-8" standalone="no"?>
<svg width="215px" height="32px" viewBox="0 0 169 25" version="1.1" xmlns="http://www.w3.org/2000/svg" xmlns:xlink="http://www.w3.org/1999/xlink">
    <!-- Generator: Sketch 41 (35326) - http://www.bohemiancoding.com/sketch -->
    <title>logo_color-black</title>
    <desc>Created with Sketch.</desc>
    <defs></defs>
    <g id="Logo" stroke="none" stroke-width="1" fill="none" fill-rule="evenodd">
        <g id="logo_color-black">
            <g id="Group">
                <g id="Group-Copy">
                    <path d="M81.720947,21.0976136 C78.6289015,21.0976136 77.7220833,18.4082197 77.6879924,15.9551894 C77.7220833,13.5021591 78.6289015,10.8131439 81.720947,10.8131439 C84.8129924,10.8131439 85.7201894,13.5021591 85.7531439,15.9551894 C85.7201894,18.4082197 84.8129924,21.0976136 81.720947,21.0976136 L81.720947,21.0976136 Z M82.6610985,7.05026515 C80.6436742,7.05026515 79.0652652,7.75518939 77.8217045,8.89685606 L77.8217045,3.13284091 L77.8235985,3.13284091 L77.8235985,1.48625 C77.8235985,0.957462121 77.3917803,0.528295455 76.8614773,0.528295455 L74.6804167,0.528295455 C74.1489773,0.528295455 73.719053,0.957462121 73.719053,1.48625 L73.719053,3.13284091 L73.7228409,3.13284091 L73.7228409,20.7976136 L73.719053,20.7976136 L73.719053,23.4942045 C73.719053,24.0248864 74.1489773,24.4555682 74.6804167,24.4555682 L76.8614773,24.4555682 C77.3917803,24.4555682 77.8235985,24.0248864 77.8235985,23.4942045 L77.8235985,22.8097348 L77.8898864,22.8097348 C78.8967045,24.0199621 80.2088258,24.8597348 82.6610985,24.8597348 C87.0311742,24.8597348 90.0576894,20.8608712 90.0576894,15.9551894 C90.0576894,11.0483712 87.0311742,7.05026515 82.6610985,7.05026515 L82.6610985,7.05026515 Z M70.9948106,9.20670455 L70.9929167,9.20670455 L70.9929167,8.41844697 C70.9929167,7.88965909 70.5641288,7.46011364 70.0349621,7.46011364 L67.8557955,7.46011364 C67.3273864,7.46011364 66.8967045,7.88965909 66.8967045,8.41844697 L66.8967045,9.20670455 L66.8936742,9.20670455 L66.8936742,16.5923106 C66.8936742,18.6442045 65.9539015,20.8964773 62.8629924,20.8964773 C60.7898864,20.8964773 59.8497348,19.8972348 59.8383712,17.5752652 L59.8383712,8.41844697 C59.8383712,7.88965909 59.4076894,7.46011364 58.8777652,7.46011364 L56.7008712,7.46011364 C56.1705682,7.46011364 55.7398864,7.88965909 55.7398864,8.41844697 L55.7398864,8.79875 L55.7376136,8.79875 L55.7376136,18.71125 C55.7376136,23.6514015 59.0648864,24.8597348 61.9550379,24.8597348 C64.2724621,24.8597348 65.9201894,23.9510227 66.8270076,22.7756439 L66.8936742,22.7756439 L66.8936742,23.4514015 L66.8967045,23.4514015 L66.8967045,23.4945833 C66.8967045,24.0252652 67.3273864,24.4555682 67.8557955,24.4555682 L70.0349621,24.4555682 C70.5641288,24.4555682 70.9929167,24.0252652 70.9929167,23.4945833 L70.9929167,23.4514015 L70.9948106,23.4514015 L70.9948106,9.20670455 L70.9948106,9.20670455 Z M44.8618561,12.6286742 L40.3925379,12.6286742 L40.3925379,4.29496212 L44.6948106,4.29496212 C47.283447,4.29496212 49.06375,5.26958333 49.06375,8.59458333 C49.06375,10.9468561 47.6872348,12.6286742 44.8618561,12.6286742 L44.8618561,12.6286742 Z M45.4001136,0.531325758 L39.4251136,0.531325758 L37.1656439,0.531325758 L36.8497348,0.531325758 C36.3198106,0.531325758 35.8910227,0.958598485 35.8910227,1.49003788 L35.8910227,1.79344697 L35.8910227,22.966553 L35.8910227,23.4945833 C35.8910227,24.0248864 36.3198106,24.4551894 36.8497348,24.4551894 L39.4251136,24.4551894 C39.9550379,24.4551894 40.3845833,24.0248864 40.3845833,23.4945833 L40.3845833,22.966553 L40.3925379,22.966553 L40.3925379,16.393447 L45.7035227,16.393447 C50.4429167,16.393447 53.7686742,13.3343561 53.7686742,8.59458333 C53.7686742,3.9582197 51.0133712,0.531325758 45.4001136,0.531325758 L45.4001136,0.531325758 Z" id="Fill-1" fill="#4FC8ED"></path>
                    <path d="M128.700076,15.9548485 C128.163712,16.2234091 127.491742,16.4260606 126.752348,16.5590152 L124.498561,17.0321212 C122.953485,17.3321212 121.676591,17.7703788 121.676591,19.3813636 C121.676591,20.6609091 122.851212,21.5018182 124.330758,21.5018182 C126.247045,21.5018182 128.700076,20.5597727 128.700076,18.3756818 L128.700076,15.9548485 Z M132.80197,21.42 L132.800833,21.4215152 L132.800833,23.4946212 C132.800833,24.025303 132.370909,24.4552273 131.840985,24.4552273 L130.855,24.4552273 L130.852348,24.4582576 L130.851212,24.4552273 L129.663333,24.4552273 C129.132652,24.4552273 128.702727,24.025303 128.702727,23.4946212 L128.702727,22.9245455 C128.70197,22.9207576 128.700076,22.9169697 128.700076,22.9112879 C127.120909,24.1885606 125.273182,24.8597727 123.154242,24.8597727 C119.928864,24.8597727 117.375833,22.8101515 117.375833,19.5165909 C117.375833,16.1904545 120.029621,14.7112879 122.549697,14.2059848 L124.263712,13.8715152 C125.743636,13.5688636 127.659545,13.2328788 128.700076,12.8624242 L128.700076,12.3582576 C128.700076,10.6790909 127.256894,10.2086364 125.475833,10.2086364 C123.385682,10.2086364 122.500455,10.7086364 122.28,12.3086364 L122.274697,12.3184848 C122.236061,12.4745455 122.159167,12.612803 122.054621,12.7287121 L122.043258,12.7514394 L122.033788,12.7514394 C121.846288,12.9465152 121.58,13.0643182 121.28947,13.0476515 L119.122045,12.9211364 C118.362955,12.8711364 118.227348,12.4658333 118.250076,11.9518182 L118.247803,11.9423485 C118.248182,11.9359091 118.249318,11.9302273 118.250833,11.9234091 L118.250833,11.9173485 L118.25197,11.9169697 C118.629621,8.41962121 121.962197,7.05068182 125.475833,7.05068182 C129.137576,7.05068182 132.80197,7.78969697 132.80197,12.6287121 L132.80197,21.42 Z M167.850833,17.9980303 L166.123561,17.9980303 C165.471288,17.9980303 165.104621,18.4090152 164.765985,19.0256818 L164.725455,19.1086364 C164.021667,20.3025758 162.828106,21.0972727 161.47697,21.0972727 C158.539848,21.0972727 157.061439,18.6090152 157.061439,15.9552273 C157.061439,13.3014394 158.539848,10.8135606 161.47697,10.8135606 C162.828106,10.8135606 164.021667,11.6075 164.725455,12.802197 L164.765985,12.8840152 C165.104621,13.5014394 165.471288,13.9112879 166.123561,13.9112879 L167.850833,13.9112879 C168.678485,13.9112879 169.022803,13.3904545 168.869773,12.7086364 L168.862197,12.6775758 C168.687955,11.9987879 168.442879,11.3768182 168.137576,10.8082576 L168.0925,10.6976515 C166.931515,8.66621212 164.953864,7.05068182 161.47697,7.05068182 C155.95197,7.05068182 152.75803,10.8809848 152.75803,15.9552273 C152.75803,21.0290909 155.95197,24.8593939 161.47697,24.8593939 C164.953864,24.8593939 166.931515,23.2457576 168.0925,21.2120455 L168.137576,21.1033333 C168.442879,20.5332576 168.687955,19.9090152 168.862197,19.2340152 L168.869773,19.202197 C169.022803,18.5203788 168.678485,17.9980303 167.850833,17.9980303 L167.850833,17.9980303 Z M150.671288,2.60939394 C150.671288,1.37795455 149.730379,0.378712121 148.566364,0.378712121 C147.404621,0.378712121 146.461061,1.37795455 146.461061,2.60939394 C146.461061,3.8419697 147.404621,4.84045455 148.566364,4.84045455 C149.730379,4.84045455 150.671288,3.8419697 150.671288,2.60939394 L150.671288,2.60939394 Z M150.625455,8.41583333 C150.625455,7.88515152 150.194773,7.45522727 149.663712,7.45522727 L147.487955,7.45522727 C146.957273,7.45522727 146.528485,7.88515152 146.528485,8.41583333 L146.528485,23.4946212 C146.528485,24.025303 146.957273,24.4552273 147.487955,24.4552273 L149.663712,24.4552273 C150.194773,24.4552273 150.625455,24.025303 150.625455,23.4946212 L150.625455,8.41583333 Z M143.429242,7.45219697 L141.336439,7.45219697 L141.336439,2.39765152 C141.336439,1.8669697 140.907273,1.43666667 140.378485,1.43666667 L138.198939,1.43666667 C137.667121,1.43666667 137.23947,1.8669697 137.23947,2.39765152 L137.23947,7.45219697 L135.139848,7.45219697 C134.714848,7.45219697 134.367879,7.79727273 134.367879,8.22189394 L134.367879,9.95257576 C134.367879,10.3802273 134.714848,10.7237879 135.139848,10.7237879 L137.23947,10.7237879 L137.23947,23.4946212 C137.23947,24.025303 137.667121,24.4552273 138.198939,24.4552273 L140.378485,24.4552273 C140.907273,24.4552273 141.336439,24.025303 141.336439,23.4946212 L141.336439,10.7237879 L143.429242,10.7237879 C143.859167,10.7237879 144.203864,10.3802273 144.203864,9.95257576 L144.203864,8.22189394 C144.203864,7.79727273 143.859167,7.45219697 143.429242,7.45219697 L143.429242,7.45219697 Z M115.103106,23.2480303 L115.095909,23.2480303 L115.095909,23.4946212 C115.095909,24.0249242 114.6675,24.4556061 114.136818,24.4556061 L111.755379,24.4556061 C111.225076,24.4556061 110.794773,24.0249242 110.794773,23.4946212 L110.794773,4.71393939 L110.802348,4.71469697 L110.802348,4.49537879 L110.733788,4.49537879 L108.790985,12.7355303 L108.795152,12.7355303 L107.153485,19.6851515 L106.28303,23.377197 L106.28,23.3809848 L106.253106,23.4946212 C106.130379,24.0143182 105.822803,24.439697 105.306136,24.4525758 L105.300833,24.4582576 L102.524318,24.4582576 L102.524318,24.4525758 C102.011439,24.4366667 101.688333,24.0131818 101.568258,23.4946212 L101.560682,23.4639394 L101.559924,23.4639394 L97.1394697,4.7044697 L97.0216667,4.71318182 L97.0216667,23.262803 L97.0205303,23.262803 L97.0205303,23.4946212 C97.0205303,24.0249242 96.5898485,24.4556061 96.0610606,24.4556061 L93.6428788,24.4556061 C93.1114394,24.4556061 92.6834091,24.0249242 92.6834091,23.4946212 L92.6834091,1.49045455 C92.6834091,1.48856061 92.6841667,1.48628788 92.6841667,1.48477273 L92.6841667,1.45106061 L92.687197,1.4480303 C92.7095455,0.936666667 93.1262121,0.530984848 93.6428788,0.530984848 L93.6561364,0.530984848 L98.8451515,0.530984848 L98.8769697,0.530984848 L98.8769697,0.534015152 C99.2981818,0.548030303 99.6462879,0.830984848 99.7610606,1.21810606 L99.7648485,1.21810606 L99.7781061,1.27378788 C99.7803788,1.28515152 99.7837879,1.29651515 99.7860606,1.30863636 L103.978106,19.0809848 L104.047045,19.0809848 L108.23,1.31166667 C108.311818,0.879090909 108.68303,0.553712121 109.133788,0.535530303 L109.133788,0.530984848 L109.172424,0.530984848 L114.077348,0.530984848 L114.136818,0.530984848 C114.661818,0.530984848 115.085303,0.949545455 115.094773,1.4730303 L115.103106,1.48022727 L115.103106,23.2480303 Z" id="Fill-3" fill="#000000"></path>
                    <polygon id="Fill-6" fill="#4FC8ED" points="0 24.4582576 23.9272727 24.4582576 23.9272727 0.531363636 0 0.531363636"></polygon>
                </g>
            </g>
        </g>
    </g>
</svg>