<svg width="200" height="44" viewBox="0 0 579 127" version="1.1" xmlns="http://www.w3.org/2000/svg" xmlns:xlink="http://www.w3.org/1999/xlink"><defs><path id="path-1" d="M.02.5h96.685V94H.02z"/><path id="path-3" d="M.79.37h96.833V127H.79z"/><path id="path-5" d="M0 .837h46.112v39.622H0z"/></defs><g id="Symbols" stroke="none" stroke-width="1" fill="none" fill-rule="evenodd"><g id="XANDR_LOGO_01" transform="translate(-7 -3)"><g id="xandr-logo" transform="translate(7 3)"><path d="M176.48 120.516L156.33 94.51l-20.32 26.038a11.174 11.174 0 01-8.935 4.452H109l35.67-45.5L110.544 34H128.8c3.512 0 6.818 1.645 8.924 4.438l19.12 26.42 19.12-26.42A11.17 11.17 0 01184.886 34h17.571l-34.295 45.514L204 125h-18.56a11.168 11.168 0 01-8.96-4.484" id="Fill-1" fill="#211F1F"/><g id="Group-5" transform="translate(198 32)"><mask id="mask-2" fill="#fff"><use xlink:href="#path-1"/></mask><path d="M68.007 67.848c5.125-5.242 7.686-12.138 7.686-20.684 0-8.547-2.56-15.439-7.686-20.682-5.125-5.24-11.615-7.864-19.473-7.864-7.86 0-14.324 2.624-19.39 7.864-5.067 5.243-7.6 12.135-7.6 20.682 0 8.546 2.533 15.442 7.6 20.684 5.066 5.241 11.53 7.863 19.39 7.863 7.858 0 14.348-2.622 19.473-7.863zM96.705 1.525v91.278H87.48c-6.132 0-11.102-4.974-11.102-11.109v-.685c-3.532 4.334-7.89 7.58-13.07 9.743C58.129 92.915 52.405 94 46.142 94c-8.881 0-16.823-1.936-23.827-5.813-7.006-3.87-12.471-9.34-16.4-16.409C1.985 64.714.02 56.51.02 47.164c0-9.342 1.965-17.521 5.895-24.53 3.928-7.005 9.393-12.45 16.399-16.324C29.318 2.438 37.26.5 46.14.5c5.921 0 11.36 1.025 16.314 3.075 4.952 2.052 9.252 5.074 12.898 9.06 0-6.136 4.97-11.11 11.102-11.11h10.25z" id="Fill-3" fill="#211F1F" mask="url(#mask-2)"/></g><path d="M390.563 43.159C397.517 49.935 401 59.979 401 73.298V126h-10.267c-6.143 0-11.122-5.01-11.122-11.194v-38.75c0-8.037-1.882-14.095-5.646-18.17-3.766-4.074-9.126-6.116-16.084-6.116-7.871 0-14.089 2.386-18.65 7.15-4.566 4.764-6.844 11.623-6.844 20.58v35.306c0 6.184-4.98 11.194-11.123 11.194H311V34.032h9.239c6.141 0 11.12 5.011 11.12 11.194v.689c3.537-4.248 7.983-7.463 13.347-9.644C350.066 34.089 356.11 33 362.844 33c11.52 0 20.758 3.387 27.719 10.159" id="Fill-6" fill="#211F1F"/><g id="Group-10" transform="translate(411)"><mask id="mask-4" fill="#fff"><use xlink:href="#path-3"/></mask><path d="M63.296 105.154c4.098-2.342 7.344-5.683 9.734-10.025 2.391-4.339 3.587-9.363 3.587-15.078 0-5.71-1.196-10.735-3.587-15.077-2.39-4.341-5.636-7.68-9.734-10.025-4.1-2.34-8.711-3.511-13.834-3.511-5.123 0-9.733 1.17-13.833 3.51-4.1 2.345-7.343 5.685-9.734 10.026-2.393 4.342-3.589 9.368-3.589 15.077 0 5.715 1.196 10.74 3.59 15.078 2.39 4.342 5.633 7.683 9.733 10.025 4.1 2.343 8.71 3.512 13.833 3.512 5.123 0 9.734-1.169 13.834-3.512zM97.623.37V125.8H88.23c-6.13 0-11.1-4.985-11.1-11.137v-.686c-3.532 4.344-7.887 7.599-13.066 9.768C58.882 125.91 53.16 127 46.9 127c-8.769 0-16.65-1.941-23.653-5.825-7-3.88-12.495-9.394-16.479-16.536C2.78 97.5.79 89.304.79 80.051c0-9.252 1.989-17.418 5.977-24.503 3.984-7.078 9.48-12.563 16.48-16.447 7.002-3.882 14.883-5.826 23.652-5.826 6.035 0 11.554 1.028 16.567 3.084 5.01 2.056 9.279 5.141 12.81 9.252V.371h21.347z" id="Fill-8" fill="#211F1F" mask="url(#mask-4)"/></g><path d="M579 33v20.493c-1.831-.344-3.488-.517-4.977-.517-8.347 0-14.866 2.44-19.55 7.32-4.69 4.882-7.034 11.914-7.034 21.098v33.413c0 6.183-4.992 11.193-11.148 11.193H526V34.034h20.41v13.43C552.585 37.822 563.447 33 579 33" id="Fill-11" fill="#211F1F"/><g id="Group-15" transform="translate(0 37)"><mask id="mask-6" fill="#fff"><use xlink:href="#path-5"/></mask><path d="M23.308.837a11.639 11.639 0 00-1.954 2.518L0 40.459h46.112L23.308.837z" id="Fill-13" fill="#E10500" mask="url(#mask-6)"/></g><path d="M74 34.437A11.757 11.757 0 0070.822 34H31.178c-1.09 0-2.157.15-3.178.437L51 74l23-39.563z" id="Fill-16" fill="#F73232"/><path d="M0 83l21.302 37.458c.54.947 1.198 1.799 1.95 2.542L46 83H0z" id="Fill-18" fill="#FC5047"/><path d="M80.698 120.458L102 83H56l22.75 40a11.733 11.733 0 001.948-2.542" id="Fill-20" fill="#FF7061"/><path d="M28 125.563c1.021.287 2.089.437 3.178.437h39.644c1.09 0 2.157-.15 3.178-.437L51 86l-23 39.563z" id="Fill-22" fill="#FC8D7E"/><path d="M102 77L80.698 39.542A11.756 11.756 0 0078.748 37L56 77h46z" id="Fill-24" fill="#FC5047"/></g></g></g></svg>